<svg width="16" height="16" viewBox="0 0 16 16" fill="none" xmlns="http://www.w3.org/2000/svg">
<rect width="16" height="16" rx="1" fill="white"/>
<ellipse cx="8.02969" cy="8.13696" rx="4.55997" ry="4.53345" stroke="#0184FF" stroke-width="0.9"/>
<ellipse cx="8.00276" cy="3.39491" rx="1.36799" ry="1.39491" fill="#0184FF"/>
<ellipse cx="8.00467" cy="3.35317" rx="0.52615" ry="0.52309" fill="white"/>
<ellipse cx="11.3035" cy="4.79334" rx="1.36799" ry="1.39491" fill="#0184FF"/>
<ellipse cx="11.3054" cy="4.75161" rx="0.52615" ry="0.52309" fill="white"/>
<ellipse cx="12.6317" cy="8.00623" rx="1.36799" ry="1.39491" fill="#0184FF"/>
<ellipse cx="12.6326" cy="7.95864" rx="0.52615" ry="0.52309" fill="white"/>
<ellipse cx="11.3035" cy="11.268" rx="1.36799" ry="1.39491" fill="#0184FF"/>
<ellipse cx="11.3054" cy="11.2965" rx="0.52615" ry="0.52309" fill="white"/>
<ellipse cx="8.00373" cy="12.6058" rx="1.36799" ry="1.39491" fill="#0184FF"/>
<ellipse cx="8.00564" cy="12.5641" rx="0.52615" ry="0.52309" fill="white"/>
<ellipse cx="4.70002" cy="11.268" rx="1.36799" ry="1.39491" fill="#0184FF"/>
<ellipse cx="4.70193" cy="11.2965" rx="0.52615" ry="0.52309" fill="white"/>
<ellipse cx="3.36799" cy="8.07655" rx="1.36799" ry="1.39491" fill="#0184FF"/>
<ellipse cx="3.35818" cy="8.08168" rx="0.52615" ry="0.52309" fill="white"/>
<ellipse cx="4.70002" cy="4.79334" rx="1.36799" ry="1.39491" fill="#0184FF"/>
<ellipse cx="4.70193" cy="4.75161" rx="0.52615" ry="0.52309" fill="white"/>
</svg>
