<svg width="853" height="800" viewBox="-125 0 1100 800" fill="none" xmlns="http://www.w3.org/2000/svg">
<path d="M386.111 4.62094C387.211 3.02094 389.011 1.42093 390.111 0.920928C391.311 0.420928 399.511 0.0209342 408.311 0.0209342C422.611 -0.0790658 424.611 0.120928 427.511 1.92093C429.911 3.42093 431.111 5.12095 431.911 8.22095C432.511 10.5209 432.811 14.4209 432.511 16.9209C432.311 19.4209 432.211 22.1209 432.511 22.9209C432.711 23.7209 435.411 25.2209 438.611 26.3209C441.711 27.3209 447.311 29.7209 451.011 31.5209C454.811 33.4209 458.111 34.9209 458.511 34.9209C459.011 34.9209 460.411 33.0209 461.811 30.8209C463.211 28.6209 465.911 25.8209 467.811 24.6209C469.811 23.4209 473.011 22.5209 475.311 22.5209C478.311 22.5209 480.311 23.3209 483.311 25.6209C485.511 27.3209 491.311 32.9209 496.211 38.0209C501.111 43.2209 505.511 48.5209 506.011 49.9209C506.611 51.5209 506.611 53.7209 506.011 55.9209C505.311 58.1209 502.811 61.4209 493.111 70.4209L496.911 78.4209C499.011 82.8209 501.311 88.5209 503.311 95.9209H511.311C517.211 95.9209 520.411 96.5209 523.511 97.9209C526.611 99.4209 528.211 100.921 529.411 103.721C530.711 106.721 530.911 110.421 530.611 123.521C530.311 138.021 530.111 139.921 528.311 141.921C527.211 143.121 525.111 144.721 523.511 145.521C521.811 146.421 517.611 146.921 503.311 146.921L500.911 154.121C499.611 158.121 497.211 164.121 495.611 167.421C494.011 170.721 493.111 173.621 493.611 173.921C494.111 174.221 496.211 175.921 498.211 177.721C500.211 179.421 502.911 182.621 504.311 184.721C505.711 186.721 506.911 189.821 506.911 191.421C506.811 193.121 505.411 196.521 503.611 199.321C501.811 202.121 496.811 207.521 492.511 211.321C488.211 215.221 483.711 218.921 482.511 219.621C481.311 220.321 478.311 220.821 475.811 220.821C471.611 220.821 470.911 220.421 465.711 215.121C462.611 212.021 459.911 208.921 459.711 208.221C459.411 207.421 457.011 208.121 452.311 210.521C448.411 212.421 442.311 214.921 431.811 217.921L431.511 228.321C431.311 237.921 431.111 239.021 428.811 241.421C427.411 242.821 424.711 244.421 422.811 244.921C420.911 245.521 413.711 245.921 406.811 245.921C396.911 245.921 393.611 245.521 390.811 244.121C388.811 243.121 386.611 240.921 385.611 238.921C384.311 236.421 383.811 233.021 383.811 218.421L379.611 217.121C377.211 216.321 371.011 213.721 365.811 211.321C359.011 208.121 356.211 207.221 355.911 208.121C355.711 208.821 353.211 211.821 350.411 214.821C345.711 219.721 344.911 220.221 334.011 221.421L322.911 210.421C316.711 204.321 311.011 197.821 310.211 195.921C308.911 193.121 308.811 191.721 309.711 188.721C310.411 186.221 313.011 182.821 323.311 173.021L319.711 165.721C317.711 161.721 315.211 155.821 312.311 146.921H302.511H302.51C292.811 146.921 292.811 146.921 285.311 140.121L284.911 123.221C284.711 109.321 284.911 105.821 286.211 103.221C287.111 101.421 289.011 99.1209 290.511 98.2209C292.411 97.021 296.411 96.3209 312.711 95.4209L313.811 90.9209C314.411 88.4209 316.811 82.9209 323.311 70.7209L317.911 66.0209C315.011 63.5209 311.911 60.2209 311.211 58.7209C310.411 57.1209 309.811 54.3209 309.811 52.4209C309.811 50.2209 310.711 47.9209 312.211 46.2209C313.511 44.6209 318.711 39.3209 323.711 34.4209C328.811 29.5209 333.911 24.9209 335.111 24.2209C336.311 23.5209 338.811 23.0209 340.511 22.9209C342.311 22.9209 345.011 23.5209 346.511 24.3209C348.111 25.0209 350.911 27.4209 352.911 29.5209C354.811 31.7209 356.611 34.0209 356.911 34.7209C357.211 35.7209 358.611 35.3209 362.311 33.2209C365.011 31.7209 370.911 29.2209 383.311 25.0209L383.811 16.1209C384.211 9.92094 384.811 6.52094 386.111 4.62094Z" fill="#0084FF"/>
<path d="M233.911 117.521C234.811 114.921 236.411 113.021 238.811 111.721C241.311 110.421 243.511 109.921 246.311 110.321C249.211 110.621 251.211 111.721 253.611 114.321C256.111 117.121 256.811 121.921 256.811 121.921C256.811 121.921 256.111 126.721 253.611 129.521C251.011 132.321 249.411 133.221 245.811 133.521C242.411 133.921 240.511 133.521 238.111 132.021C235.811 130.521 234.411 128.621 233.611 125.721C232.711 122.221 232.711 120.721 233.911 117.521Z" fill="#0084FF"/>
<path d="M558.311 115.921C559.111 114.321 561.011 112.221 562.611 111.421H562.511C564.311 110.421 566.911 110.021 569.811 110.321C573.411 110.621 574.911 111.421 577.511 114.321C579.911 116.921 580.811 118.921 580.811 121.421C580.811 123.321 580.011 126.221 579.011 127.921C578.111 129.521 576.111 131.521 574.511 132.421C573.011 133.221 570.111 133.921 568.011 133.921C566.011 133.921 563.311 133.221 562.011 132.421C560.811 131.621 559.111 129.521 558.311 127.921C557.511 126.321 556.811 123.521 556.811 121.921C556.811 120.321 557.511 117.521 558.311 115.921Z" fill="#0084FF"/>
<path d="M176.411 117.421C180.811 115.921 188.411 113.821 193.411 112.821C198.311 111.821 204.011 111.221 205.911 111.421C208.211 111.721 210.411 112.921 212.111 114.921C213.711 116.521 214.911 119.021 214.911 120.421C214.911 121.821 214.111 124.221 213.111 125.921C212.211 127.521 210.311 129.321 208.911 130.021C207.511 130.621 203.311 131.421 199.411 131.921C195.511 132.421 188.811 133.921 184.411 135.321C180.011 136.721 173.711 139.521 170.411 141.421C167.111 143.421 162.011 146.921 159.011 149.221C156.011 151.521 150.811 156.621 147.511 160.521C144.111 164.421 139.411 171.521 136.911 176.321C134.411 181.121 131.411 186.021 130.111 187.221C128.511 188.688 126.444 189.421 123.911 189.421C121.511 189.421 119.311 188.721 118.011 187.421C116.811 186.321 115.611 184.021 115.311 182.421C115.011 180.621 115.611 177.021 116.811 173.421C118.011 170.121 120.711 164.521 122.811 160.921C125.011 157.321 129.611 151.021 133.111 146.921C136.711 142.821 143.111 136.721 147.511 133.421C151.811 130.021 158.311 125.721 161.911 123.721C165.511 121.721 172.011 118.821 176.411 117.421Z" fill="#0084FF"/>
<path d="M599.811 119.021C600.111 117.121 601.511 114.821 602.811 113.721C604.511 112.521 606.911 111.921 610.811 111.921C613.911 111.921 620.211 112.821 624.911 114.021C629.611 115.121 636.811 117.421 640.911 119.121C645.011 120.921 651.511 124.121 655.211 126.321C658.911 128.621 665.211 133.121 669.211 136.421C673.211 139.821 679.211 145.821 682.711 149.921C686.311 154.221 691.111 161.621 694.011 167.421C697.511 174.321 699.111 178.821 699.311 181.921C699.411 184.821 700.511 187.821 702.211 190.421C703.611 192.621 705.111 195.521 705.411 196.921C705.811 198.321 705.411 201.021 704.511 203.221C703.611 205.221 701.411 207.821 699.711 208.921C697.711 210.121 694.611 210.921 692.211 210.921C688.911 210.921 687.211 210.221 684.811 208.221C683.211 206.621 681.411 203.921 680.811 202.221C680.311 200.421 680.211 197.921 680.511 196.721C680.811 195.421 681.611 193.421 682.211 192.221C683.211 190.321 682.911 188.821 679.911 182.221C678.011 178.021 674.711 172.021 672.611 168.921C670.411 165.921 666.411 161.021 663.611 158.121C660.711 155.221 655.511 150.621 651.911 148.021C648.311 145.321 642.711 141.821 639.411 140.121C636.111 138.521 630.311 136.221 626.411 135.021C622.511 133.921 616.311 132.421 612.411 131.821C608.511 131.221 604.611 130.321 603.711 129.821C602.711 129.321 601.311 127.421 600.511 125.721C599.711 123.721 599.411 121.121 599.811 119.021Z" fill="#0084FF"/>
<path d="M190.311 180.921C191.911 179.521 194.311 176.221 195.611 173.621C197.011 170.921 198.611 169.021 199.311 169.221C199.911 169.421 202.011 172.221 203.911 175.421C206.411 179.521 208.711 181.921 211.911 183.621C214.411 185.021 217.111 186.721 217.911 187.421C218.811 188.321 219.111 189.421 218.611 190.421C218.211 191.221 215.811 193.021 213.111 194.321C210.511 195.621 207.711 197.421 206.911 198.421C206.111 199.421 204.311 202.321 202.911 204.821C201.511 207.321 199.811 209.421 199.011 209.421C198.211 209.421 196.511 207.421 195.211 204.921C193.911 202.421 192.011 199.521 191.111 198.521C190.211 197.521 187.011 195.621 184.111 194.321C180.111 192.421 178.911 191.421 178.911 189.721C178.811 188.021 179.911 186.921 183.111 185.421C185.411 184.321 188.711 182.321 190.311 180.921Z" fill="#0084FF"/>
<path d="M601.411 184.321C606.611 181.521 607.911 180.321 610.711 175.021C612.511 171.621 614.611 168.921 615.411 168.921C616.211 168.921 618.211 171.521 619.711 174.721C622.011 179.521 623.411 181.021 628.411 184.021C632.411 186.421 634.477 188.321 634.611 189.721C634.811 191.521 633.911 192.321 630.111 194.021C627.511 195.121 624.511 196.821 623.411 197.921C622.311 198.921 620.311 202.021 618.911 204.821C617.511 207.721 615.811 209.921 615.111 209.921C614.511 209.921 612.811 207.821 611.511 205.221C610.211 202.521 608.011 199.421 606.711 198.221C605.511 197.021 602.311 195.121 599.611 194.021C595.811 192.321 594.911 191.521 595.111 189.721C595.311 188.021 597.111 186.521 601.411 184.321Z" fill="#0084FF"/>
<path d="M87.7107 232.521C99.1107 221.121 109.711 210.821 111.411 209.821C113.111 208.721 116.211 207.921 118.611 207.921C121.011 207.921 123.911 208.421 125.111 209.021C126.411 209.621 136.811 219.421 148.211 230.821C159.711 242.121 169.711 252.621 170.511 254.221C171.311 255.721 171.911 258.321 171.911 259.921C171.911 261.521 171.411 263.921 170.811 265.221C170.211 266.421 168.711 268.421 167.511 269.721C166.411 270.921 164.011 272.221 162.411 272.521C160.811 272.921 158.211 272.921 156.611 272.521C155.111 272.221 150.511 269.021 138.911 258.921L138.611 280.721C138.411 300.721 138.211 302.721 136.211 306.421C135.111 308.621 133.011 311.421 131.711 312.621C130.511 313.821 127.711 315.521 125.611 316.321C123.611 317.221 120.311 317.921 118.411 317.921C116.511 317.921 113.411 317.221 111.611 316.321C109.911 315.421 107.311 313.721 106.111 312.521C104.811 311.421 102.811 308.721 101.811 306.721C100.111 303.321 99.9107 300.521 99.9107 280.921C99.9107 266.921 99.5107 258.921 98.9107 258.921C98.3107 258.921 96.0107 260.921 93.6107 263.321C91.3107 265.721 87.6107 268.921 85.4107 270.321C82.8107 272.021 80.1107 273.021 77.6107 272.921C75.0107 272.921 73.0107 272.121 70.8107 270.221C69.2107 268.621 67.3107 265.821 66.7107 263.921C66.1107 262.021 66.0107 258.821 66.4107 256.921C67.0107 254.121 71.1107 249.321 87.7107 232.521Z" fill="#0084FF"/>
<path d="M682.011 233.321C683.311 232.121 685.811 230.421 687.411 229.621C689.011 228.721 692.511 228.021 695.111 227.921C697.811 227.921 701.111 228.421 702.611 229.021C704.211 229.521 706.711 231.221 708.211 232.721C709.811 234.221 711.911 237.121 713.011 239.221C714.711 242.521 714.911 245.221 714.911 264.921C714.911 277.021 715.211 286.921 715.611 286.921C716.111 286.921 719.211 284.221 722.611 280.921C728.311 275.521 729.311 274.921 733.111 274.921C735.611 274.921 738.711 275.721 740.611 276.921C742.411 278.021 744.611 280.521 745.411 282.421C746.211 284.321 746.911 286.921 746.911 288.221C746.911 289.421 746.111 291.821 745.211 293.621C744.211 295.321 735.311 304.621 725.411 314.121C711.011 328.021 706.411 331.821 702.411 333.321C698.811 334.721 696.211 335.021 693.111 334.621C690.811 334.221 687.511 333.221 685.911 332.421C684.311 331.621 674.711 322.921 664.811 313.221C653.511 302.121 646.111 294.121 645.211 291.921C644.311 289.721 644.011 287.221 644.511 285.421C644.811 283.821 645.811 281.521 646.611 280.421C647.411 279.321 649.211 277.621 650.711 276.721C652.211 275.721 655.311 274.921 657.611 274.921C661.111 274.921 662.811 275.621 666.911 278.921C669.611 281.121 672.511 283.821 673.111 284.921C673.811 286.021 674.711 286.921 675.111 286.921C675.611 286.921 675.911 277.121 675.911 265.221C675.911 246.121 676.211 242.921 677.811 239.421C678.811 237.221 680.711 234.421 682.011 233.321Z" fill="#0084FF"/>
<path d="M343.411 249.921C344.211 248.321 346.411 246.021 348.111 244.921C349.911 243.821 353.011 242.921 354.911 242.921C356.811 242.921 359.811 243.821 361.411 244.921C363.011 246.021 364.911 247.921 365.611 249.221C366.311 250.421 366.811 253.321 366.911 255.721C366.911 259.121 366.311 260.621 363.611 263.521C361.911 265.421 359.011 267.421 357.411 267.921C355.811 268.321 353.311 268.521 351.911 268.121C350.511 267.821 348.511 267.021 347.411 266.321C346.311 265.721 344.611 263.521 343.611 261.521C342.711 259.521 341.911 256.821 341.911 255.421C341.911 254.021 342.611 251.521 343.411 249.921Z" fill="#0084FF"/>
<path d="M450.811 248.521C451.911 247.021 454.311 245.121 456.111 244.321C457.911 243.621 460.211 243.021 461.111 242.921C462.111 242.921 464.511 243.621 466.411 244.421C468.311 245.221 470.811 247.421 471.911 249.221C473.011 251.021 473.911 254.121 473.911 256.421C473.811 259.721 473.111 261.121 470.011 264.221C466.511 267.521 465.611 267.921 461.011 267.921C456.511 267.921 455.511 267.521 452.411 264.421C449.411 261.421 448.911 260.221 448.911 256.221C448.811 253.021 449.511 250.421 450.811 248.521Z" fill="#0084FF"/>
<path d="M296.411 273.921C297.211 272.321 299.411 270.221 301.111 269.421C302.911 268.621 305.411 268.021 306.611 267.921C307.911 267.921 310.311 268.621 311.911 269.421C313.511 270.221 315.611 272.321 316.411 273.921C317.211 275.521 317.911 278.321 317.911 279.921C317.911 281.521 317.111 284.321 316.111 285.921C315.211 287.621 312.911 289.621 311.111 290.421C309.411 291.221 307.011 291.921 305.911 291.921C304.811 291.921 302.511 291.221 300.911 290.421C299.311 289.621 297.211 287.521 296.411 285.921C295.611 284.321 294.911 281.521 294.911 279.921C294.911 278.321 295.611 275.521 296.411 273.921Z" fill="#0084FF"/>
<path d="M498.411 273.921C499.211 272.321 501.411 270.221 503.111 269.421C504.911 268.621 507.711 268.121 509.411 268.421C511.011 268.721 513.511 269.721 514.911 270.821C516.311 271.821 518.011 273.721 518.711 275.021C519.411 276.421 519.811 279.121 519.511 281.421C519.111 284.021 518.011 286.421 516.211 288.221C514.311 290.121 511.911 291.221 508.811 291.721C504.411 292.421 504.011 292.221 500.511 288.721C497.611 285.621 496.911 284.121 496.911 280.921C496.911 278.721 497.611 275.521 498.411 273.921Z" fill="#0084FF"/>
<path d="M397.011 285.821C397.111 282.621 397.811 281.021 400.411 278.321C403.111 275.521 404.511 274.921 407.811 274.921C410.111 274.921 413.111 275.521 414.611 276.321C416.211 277.021 418.011 278.821 418.611 280.321C419.311 281.721 419.911 284.621 419.911 286.721C420.011 289.121 419.211 291.421 417.711 293.321C416.411 294.921 413.911 296.821 412.111 297.621C410.411 298.321 407.911 298.621 406.611 298.321C405.411 298.021 403.311 297.221 402.011 296.621C400.711 295.921 399.011 294.221 398.311 292.721C397.511 291.121 396.911 288.121 397.011 285.821Z" fill="#0084FF"/>
<path d="M613.711 344.321C614.611 343.121 616.311 341.721 617.411 341.121C618.511 340.521 620.911 339.921 622.611 339.921C624.411 339.921 627.111 340.521 628.611 341.321C630.211 342.021 631.911 343.721 632.611 345.021C633.211 346.321 634.011 348.421 634.311 349.721C634.611 350.921 634.311 353.421 633.611 355.221C632.811 356.921 630.911 359.421 629.311 360.721C627.611 362.021 625.111 363.021 623.111 362.921C621.411 362.921 618.511 362.221 616.911 361.421C615.311 360.621 613.411 359.021 612.911 357.921C612.411 356.821 611.911 353.821 611.911 351.221C611.911 348.221 612.611 345.621 613.711 344.321Z" fill="#0084FF"/>
<path d="M747.911 344.621C749.111 343.021 751.011 341.321 752.211 340.921C753.411 340.421 756.111 340.021 758.111 340.021C761.111 339.921 762.611 340.621 765.411 343.421C768.111 346.121 768.911 347.721 768.911 350.421C768.911 352.321 768.211 355.321 767.411 356.921C766.611 358.521 764.511 360.621 762.911 361.421C761.211 362.221 758.511 362.921 756.911 362.921C755.211 362.921 752.711 362.321 751.311 361.721C749.811 361.021 748.011 359.221 747.311 357.721C746.511 356.121 745.911 353.221 745.911 351.221C745.811 348.921 746.711 346.321 747.911 344.621Z" fill="#0084FF"/>
<path d="M45.9107 348.521C47.0107 346.921 48.9107 345.021 50.2107 344.321C51.4107 343.521 54.5107 343.021 57.2107 342.921C60.8107 342.921 62.6107 343.521 64.9107 345.421C66.6107 346.821 68.3107 349.421 68.8107 351.221C69.3107 353.121 69.3107 356.021 68.8107 358.421C68.3107 360.621 67.1107 363.221 66.2107 364.321C65.2107 365.321 63.2107 366.721 61.7107 367.521C60.1107 368.321 57.2107 368.921 55.2107 368.921C52.2107 368.821 50.6107 368.021 47.7107 365.121C44.4107 361.821 44.0107 360.821 44.0107 356.421C43.9107 353.021 44.5107 350.521 45.9107 348.521Z" fill="#0084FF"/>
<path d="M168.811 352.321C170.011 350.821 172.111 349.221 173.311 348.821C174.411 348.421 176.511 348.021 177.911 348.021C179.311 347.921 181.911 348.821 183.711 349.921C185.811 351.221 187.311 353.221 188.011 355.721C188.611 357.721 188.911 360.521 188.611 361.921C188.311 363.321 187.111 365.621 186.011 367.221C184.811 368.721 182.311 370.321 180.211 370.921C177.311 371.621 175.611 371.421 173.211 370.421C171.411 369.621 169.111 367.721 168.211 366.221C167.211 364.721 166.411 361.621 166.411 359.321C166.411 356.321 167.111 354.321 168.811 352.321Z" fill="#0084FF"/>
<path d="M109.311 357.921C110.611 356.321 113.211 354.521 115.011 354.021C116.911 353.521 118.711 353.021 119.211 353.021C119.611 352.921 121.411 353.521 123.211 354.321C124.911 355.021 127.211 356.521 128.211 357.521C129.111 358.621 130.311 361.021 130.811 362.921C131.511 365.521 131.311 367.421 130.011 370.421C129.011 372.621 127.211 375.121 125.811 376.021C124.511 376.921 122.111 377.821 120.411 378.221C118.811 378.521 116.111 378.221 114.411 377.521C112.811 376.821 110.411 374.921 109.111 373.321C107.411 371.221 106.811 369.121 106.911 365.721C106.911 362.221 107.511 360.121 109.311 357.921Z" fill="#0084FF"/>
<path d="M415 37C413.4 35.4 411.7 35 406.1 35C400.8 35 398.9 35.4 397.5 36.8C396.5 37.8 395.7 39.7 395.8 41.1C396 43.3 395.4 43.6 389.8 44.8C386.3 45.6 380.3 47.5 376.5 49.1C372.6 50.6 366.8 53.8 363.5 56.1C360.2 58.3 355.3 62.3 352.7 64.8C350 67.4 345.9 72.2 343.5 75.5C341.2 78.8 337.8 84.3 336.1 87.7C334.4 91.2 332.3 96.6 331.5 99.7C330.7 102.9 329.8 106.7 329.5 108.2C329.1 110.4 328.4 111 326.2 111C324.7 111 323 111.4 322.3 111.8C321.7 112.2 320.7 113.7 320.1 115.2C319.5 116.8 319 119.7 319 121.7C319 123.8 319.6 126.6 320.3 128C321.2 129.8 322.6 130.6 325.5 131L329.4 131.5C331.3 141.6 332.6 146.5 333.5 149C334.4 151.5 336.8 156.6 338.8 160.5C341 164.7 345.7 170.7 350.5 175.8C354.9 180.4 361.2 185.9 364.5 187.9C367.8 190 373.6 192.9 377.5 194.4C381.3 196 386.8 197.7 389.7 198.4C394.3 199.4 395 199.8 395.5 202.5C395.8 204.1 396.6 206.1 397.3 206.8C398.1 207.6 401.1 208.1 406 208.1C411.9 208.1 413.9 207.7 415.2 206.3C416.1 205.3 417 203.4 417.2 202C417.4 200.2 418.3 199.4 421 198.7C422.9 198.3 427 197.2 430 196.3C433 195.5 438.2 193.4 441.5 191.7C444.8 190.1 449.7 187 452.5 185C455.2 183 460.4 178.2 464 174.3C467.6 170.5 472.1 164.2 474.2 160.4C476.2 156.6 478.7 150.8 479.8 147.5C480.9 144.2 482 139.1 482.4 136.2C483 131.1 483.1 131 486.3 131C488.1 131 490.1 130.4 490.8 129.7C491.5 129 492 125.7 492 121.7C492 116.3 491.6 114.6 490 113C488.9 111.9 487 111 485.7 111C483.7 111 483.3 110 481.2 101.2C479.6 94.2 477.7 89.2 474.2 83.1C471.6 78.5 467.2 72.2 464.4 69.1C461.6 66 456.5 61.3 452.9 58.7C449.4 56 443.3 52.3 439.5 50.5C435.6 48.6 429 46.3 424.7 45.3C417.9 43.7 417 43.2 417 41.3C417 40 416.1 38.1 415 37Z" fill="white"/>
<path d="M384.2 82.3096C386.9 81.0096 391.4 79.3096 394.3 78.5096H394.2C397.1 77.7096 402.2 77.0096 405.5 77.0096C408.8 76.9096 414.1 77.6096 417.2 78.4096C420.4 79.2096 424.9 80.9096 427.2 82.1096C429.6 83.3096 433.7 86.3096 436.3 88.8096C439 91.3096 442.7 95.9096 444.5 98.9096C446.4 101.91 448.6 107.11 449.4 110.41C450.3 113.71 451 119.11 451 122.41C451 125.71 450.5 130.41 449.9 132.91C449.3 135.41 447.6 139.91 446.2 142.91C444.7 145.91 441.2 150.61 438.5 153.41C435.7 156.21 431.2 159.81 428.5 161.41C425.7 163.01 420.6 165.11 417 166.11C413.4 167.11 408.2 167.91 405.5 167.91C402.7 167.91 397.9 167.21 394.7 166.41C391.6 165.61 386.7 163.81 384 162.41C381.2 161.01 376.9 158.01 374.4 155.71C371.9 153.31 368.4 149.21 366.7 146.41C365 143.71 362.8 138.81 361.8 135.71C360.7 132.31 360 126.81 360 122.41C360 118.01 360.7 112.51 361.8 109.21C362.8 106.01 365.1 101.01 367 98.0096C368.9 95.0096 372.5 90.8096 375 88.6096C377.5 86.5096 381.6 83.6096 384.2 82.3096Z" fill="#0084FF"/>
<path d="M98.604 399.125C100.204 398.825 101.904 398.425 102.404 398.225C102.904 397.925 111.104 397.925 137.704 398.225L142.004 401.225C144.404 402.925 147.304 406.225 148.604 408.725C150.804 412.925 150.904 414.225 150.904 449.725L179.604 450.025C206.404 450.325 208.804 450.425 213.904 452.525C216.904 453.725 221.604 456.125 224.304 457.925C227.104 459.725 230.804 463.225 232.604 465.725C234.404 468.225 236.904 472.725 238.104 475.725C240.004 480.625 240.304 483.425 240.704 500.725C241.004 516.425 240.704 521.025 239.504 524.225C238.704 526.425 237.104 529.125 233.804 532.225L233.904 638.225C233.904 731.725 233.704 744.925 232.304 750.225C231.504 753.525 229.704 758.025 228.404 760.225C227.104 762.425 223.504 766.625 220.504 769.525C217.404 772.325 212.304 775.925 203.404 780.225H36.404L30.404 777.325C27.104 775.725 21.9041 771.825 18.8041 768.825C15.8041 765.725 12.004 760.725 10.504 757.725C8.40401 753.425 7.60404 749.925 6.90404 741.725C6.40404 735.925 6.00404 686.525 5.90404 532.725L3.40404 529.025C2.00404 526.925 0.604061 523.425 0.304061 521.225C0.00406054 519.025 -0.0959517 508.925 0.104048 498.725C0.404048 483.625 0.804036 479.425 2.40404 475.725C3.40404 473.225 5.80406 469.025 7.80406 466.325C9.80406 463.625 13.904 459.625 16.904 457.525C19.904 455.425 24.604 452.925 27.404 452.025C31.404 450.725 37.804 450.325 85.904 449.725V431.525C85.904 416.025 86.2041 412.625 87.8041 409.225C88.7041 407.025 91.004 404.025 92.704 402.525C94.504 400.925 97.104 399.425 98.604 399.125Z" fill="#0084FF"/>
<path d="M63.4998 570.725C62.7998 569.325 61.4997 568.725 59.0997 568.725C57.1997 568.725 54.8998 569.425 53.9998 570.325C53.0998 571.125 52.3998 572.625 52.4998 573.525C52.4998 574.425 53.1998 576.225 53.9998 577.525C54.9998 578.925 56.5997 579.725 58.2997 579.725C59.7997 579.825 61.7997 579.025 62.7997 578.025C63.6997 577.025 64.4998 575.425 64.4998 574.525C64.4998 573.525 64.0998 571.825 63.4998 570.725Z" fill="white"/>
<path d="M86.3864 584.825C85.2864 584.025 83.9864 583.425 83.3864 583.425C82.7864 583.425 81.0863 584.625 79.6863 586.225C78.2863 587.725 76.1864 590.725 75.0864 592.925C73.2864 596.425 72.4863 597.025 68.6863 597.425C66.3863 597.725 62.7863 599.225 60.6863 600.725C58.2863 602.425 56.8864 604.225 56.8864 605.725C56.8864 607.525 57.8863 608.225 62.1863 609.725C65.0863 610.725 67.9863 611.825 68.6863 612.225C69.5863 612.725 69.4864 614.025 68.3864 617.725C67.4864 620.725 67.1863 623.225 67.7863 624.725C68.2863 625.925 69.3863 627.225 70.2863 627.725C71.1863 628.125 73.1864 627.825 74.8864 626.925C76.5864 626.125 78.9863 623.825 80.1863 621.925C81.8863 619.225 82.8864 618.525 84.3864 618.925C85.4864 619.225 88.4864 619.725 90.8864 620.125C94.2864 620.625 96.0863 620.325 98.1863 619.125C100.086 617.925 100.986 616.525 100.986 614.725C100.986 613.125 100.286 611.225 99.2863 610.425C98.3863 609.625 95.5864 607.825 93.0864 606.425L88.5864 603.925C88.4864 587.425 88.1864 586.025 86.3864 584.825Z" fill="white"/>
<path d="M123.99 639.925C117.49 639.925 103 639.725 86.9998 639.925C71.0998 640.125 57.0998 640.325 55.9998 640.525C54.1998 640.925 54.0997 641.425 54.8997 649.125C55.3997 653.525 56.3998 659.725 57.1998 662.725C57.9998 665.725 60.4997 671.825 62.7997 676.225C65.8997 682.225 68.9998 686.325 75.4998 692.725C82.1998 699.425 85.8998 702.225 92.4998 705.525C97.1998 707.825 108.3 711.225 108.3 711.225C108.3 711.225 170.384 725.925 188.486 665.721C209.986 594.217 123.99 568.725 123.99 568.725V639.925Z" fill="white"/>
<path d="M73.7997 718.525C72.7997 717.525 70.4998 716.725 68.7997 716.725C66.6664 716.725 65.1997 717.358 64.3997 718.625C63.7997 719.725 63.2997 721.425 63.3997 722.425C63.3997 723.425 64.1998 725.025 65.1998 725.925C66.1998 726.925 68.0998 727.725 69.4998 727.725C70.8998 727.725 72.7998 727.025 73.6998 726.025C74.6998 725.025 75.4998 723.325 75.4998 722.225C75.4998 721.125 74.7997 719.425 73.7997 718.525Z" fill="white"/>
<path d="M563.79 392.4C566.49 391 570.49 389.5 572.49 389C574.59 388.5 689.29 388 689.29 388C689.29 388 804.19 388.2 807.79 388.9C810.79 389.5 815.29 390.9 817.79 392.1C820.29 393.3 824.59 396.6 827.39 399.4C830.79 402.7 833.19 406.3 834.59 410.2C836.59 415.4 836.79 417.8 836.79 458.9H840.29C842.19 458.9 844.89 459.4 846.29 459.9C847.69 460.4 849.69 462.4 850.79 464.2C851.89 465.9 852.79 469 852.79 470.9C852.79 472.8 851.69 475.9 850.49 477.8C849.29 479.7 846.79 481.9 844.99 482.6C843.29 483.3 840.79 483.9 839.49 483.9C837.39 483.9 837.29 484.4 836.49 494.6C836.09 500.6 835.79 561.6 835.79 630.4C835.79 743 835.69 755.9 834.19 760.9C833.29 763.9 831.09 768.6 829.29 771.4C827.59 774.1 824.09 778.2 821.69 780.3C819.29 782.5 814.39 785.7 804.29 790.4H576.29L570.29 787.5C566.99 786 561.79 782.3 558.79 779.4C555.79 776.5 551.89 771.5 550.19 768.3C548.39 765 546.49 760 545.89 757.2C545.09 753.5 544.79 712.3 544.79 484.4L540.59 483.7C538.19 483.3 535.29 482.2 533.99 481.4C532.79 480.6 531.09 477.8 530.09 475.2C528.79 471.3 528.69 469.7 529.59 466.7C530.29 464.5 531.99 462.1 533.49 461.2C534.99 460.2 538.09 459.2 544.29 458.4L543.99 440.9C543.79 430.6 544.09 421.1 544.79 417.9C545.39 414.9 546.89 410.4 548.09 408C549.29 405.6 552.19 401.6 554.49 399.2C556.89 396.9 560.99 393.8 563.79 392.4Z" fill="#0084FF"/>
<path d="M800.5 409H580.5L576.1 411.2C573.6 412.5 570.7 414.8 569.6 416.3C567.7 418.9 567.5 420.8 567.2 437.6L567 456H812.5C813.6 447.9 814 440.3 814 434C814 423.9 813.8 422 811.7 418C810 414.7 808.2 412.9 805 411.2L800.5 409Z" fill="white"/>
<path d="M812 481.1H567.9L568.5 525.6C581.8 527.1 586.9 527 592 526.3C596.8 525.6 602 523.9 606.5 521.7C610.3 519.8 615.3 516.5 617.5 514.4C619.7 512.3 623.7 508 626.5 504.8C629.7 501.1 632.2 499.1 633.7 499.1C635.2 499.1 638.9 502 645.2 508.4C652.6 515.9 655.9 518.4 662 521.3C666.1 523.2 671.9 525.4 675 526.2C678 526.9 685 527.5 690.5 527.4C696.4 527.4 703.1 526.7 707 525.7C710.5 524.8 716.4 522.6 720 520.9C724.8 518.6 728.8 515.3 735.7 508.4C742.1 502 745.7 499.1 747.2 499.1C748.7 499.1 752.6 502.4 759 509C766.3 516.5 770 519.5 775 521.9C778.5 523.6 784.2 525.6 787.5 526.2C790.8 526.8 797.2 527 802 526.7C806.6 526.4 810.5 526 810.6 525.8C810.6 525.7 811 515.5 811.3 503.3L812 481.1Z" fill="white"/>
<path d="M611.2 568.2L609.1 563.6L608.5 566.6C608.2 568.2 606.6 571 604.9 572.8C603.2 574.6 600.5 576.4 598.9 576.8C597.2 577.2 595.8 577.9 595.9 578.3C595.9 578.7 597.5 579.3 599.4 579.6C601.7 579.9 603.8 581.1 605.4 583.1C606.8 584.7 608.1 587.2 608.4 588.6C608.7 589.9 609.2 591 609.6 591C610 591 611.3 589.1 612.4 586.8C613.9 583.6 615.5 582 618.7 580.6C621 579.5 622.6 578.2 622.2 577.8C621.7 577.3 620.7 577 619.9 577C619.1 577 617.3 576 615.9 574.9C614.5 573.7 612.4 570.7 611.2 568.2Z" fill="white"/>
<path d="M778.1 568.1L776.2 563.6L774.1 568.3C772.9 570.9 770.9 573.7 769.7 574.5C768.4 575.3 766.1 576.2 764.4 576.6L761.4 577.3C767.6 579.4 770.2 580.8 771.2 581.8C772.2 582.8 773.6 585 774.2 586.8C774.9 588.6 775.7 590.1 776.2 590.1C776.6 590.1 777.7 588.2 778.7 586C780 582.7 781.4 581.4 785.1 579.7C787.7 578.5 789.8 577.2 789.9 576.8C789.9 576.4 789 576.1 787.9 576.1C786.8 576.1 784.6 575.3 782.9 574.3C781.1 573.2 779.2 570.8 778.1 568.1Z" fill="white"/>
<path d="M703.3 573.9C698.3 569.5 696.8 569.1 691 569.1C685.7 569.1 683.5 569.5 681.7 571L679.3 572.9L678.8 711.1L703.3 710.6V573.9Z" fill="white"/>
<path d="M612.6 613.6C611.4 612.8 609.9 612.1 609.3 612.1C608.8 612.1 607.3 612.8 606 613.6C604.4 614.667 603.633 616.1 603.7 617.9C603.7 619.4 604.6 621.4 605.6 622.3C606.5 623.3 608.3 624.1 609.5 624.1C610.7 624.1 612.4 623.4 613.3 622.6C614.1 621.8 614.8 619.8 614.8 618.1C614.8 616.1 614.067 614.6 612.6 613.6Z" fill="white"/>
<path d="M776.6 613.6C775.4 612.8 773.9 612.1 773.3 612.1C772.8 612.1 771.3 612.8 770 613.6C768.3 614.8 767.6 616.1 767.7 618.2C767.767 620.133 768.7 621.7 770.5 622.9C772.8 624.4 773.3 624.5 775.7 623.1C777.6 622 778.4 620.6 778.6 618.3C778.8 615.9 778.3 614.7 776.6 613.6Z" fill="white"/>
<path d="M741.4 617.4C740 616.7 735.7 616.1 731.8 616.1C726.2 616.1 724.5 616.5 722.8 618.1C720.9 620 720.8 621.4 720.8 665.6V711.1H744.8C745.2 661.9 745.3 642.2 745.3 635.6C745.3 629 745 622.5 744.7 621.1C744.3 619.7 742.8 618 741.4 617.4Z" fill="white"/>
<path d="M654.3 627.1C652.1 626.6 649 626.2 647.3 626.2C645.7 626.2 643.7 626.5 642.8 626.8C642 627.1 640.3 628.3 639.1 629.5L636.8 631.6V711.1H660.8C660.9 640.9 660.6 631.2 659.6 629.8C658.9 628.8 656.5 627.6 654.3 627.1Z" fill="white"/>
<path d="M616.3 648.2C614.6 646.3 613.2 646 606.7 646.1C600.7 646.1 598.6 646.5 596.7 648L594.3 649.9V710.6H618.3C618.3 651.7 618.3 650.2 616.3 648.2Z" fill="white"/>
<path d="M784.9 656.9C783 654.2 782.4 654.1 774.8 654.1C767.6 654.1 766.5 654.4 764.3 656.6L761.9 659L761.8 711.1C785.5 711.1 785.9 711 786.3 708.9C786.6 707.6 786.8 696 786.9 683.1C786.9 661 786.8 659.4 784.9 656.9Z" fill="white"/>
<path d="M782.8 728.1H598L594.9 730.7C592.2 732.9 591.7 733.9 591.8 737.7C591.8 741.2 592.4 742.7 594.8 745.1L597.8 748.1C768.7 748.1 781.2 747.9 783.8 746.6C785.5 745.8 787.3 744 787.8 742.6C788.4 741.2 788.8 738.8 788.8 737.1C788.8 735.1 787.8 733.1 785.8 731.1L782.8 728.1Z" fill="white"/>
<path d="M398.197 118.606C399.097 117.106 400.697 115.406 401.897 114.906C402.997 114.406 404.897 114.006 406.097 114.006C407.397 113.906 409.797 115.006 411.397 116.406C413.597 118.206 414.397 119.806 414.397 122.106C414.497 123.906 413.597 126.606 412.397 128.106C410.797 130.406 409.597 130.906 406.097 130.906C402.997 130.906 401.397 130.406 399.797 128.706C398.597 127.406 397.397 125.306 397.097 123.906C396.797 122.406 397.197 120.306 398.197 118.606Z" fill="white"/>
</svg>
