<svg width="214" height="77" viewBox="0 0 214 77" fill="none" xmlns="http://www.w3.org/2000/svg">
<ellipse cx="25.146" cy="39.0666" rx="19.0058" ry="18.424" stroke="white" stroke-width="4"/>
<ellipse cx="25.0001" cy="19.792" rx="5.70175" ry="5.66893" fill="white"/>
<ellipse cx="25.0001" cy="19.6493" rx="2.19298" ry="2.12585" fill="#26272B"/>
<ellipse cx="38.7428" cy="25.4619" rx="5.70175" ry="5.66893" fill="white"/>
<ellipse cx="38.7428" cy="25.3192" rx="2.19298" ry="2.12585" fill="#26272B"/>
<ellipse cx="44.2984" cy="38.499" rx="5.70175" ry="5.66893" fill="white"/>
<ellipse cx="44.2985" cy="38.3583" rx="2.19298" ry="2.12585" fill="#26272B"/>
<ellipse cx="38.7428" cy="51.8213" rx="5.70175" ry="5.66893" fill="white"/>
<ellipse cx="38.7428" cy="51.9637" rx="2.19298" ry="2.12585" fill="#26272B"/>
<ellipse cx="25.0001" cy="57.208" rx="5.70175" ry="5.66893" fill="white"/>
<ellipse cx="25.0001" cy="57.0653" rx="2.19298" ry="2.12585" fill="#26272B"/>
<ellipse cx="11.2574" cy="51.8213" rx="5.70175" ry="5.66893" fill="white"/>
<ellipse cx="11.2574" cy="51.9637" rx="2.19298" ry="2.12585" fill="#26272B"/>
<ellipse cx="5.70175" cy="38.7822" rx="5.70175" ry="5.66893" fill="white"/>
<ellipse cx="5.65587" cy="38.786" rx="2.19298" ry="2.12585" fill="#26272B"/>
<ellipse cx="11.2574" cy="25.4619" rx="5.70175" ry="5.66893" fill="white"/>
<ellipse cx="11.2574" cy="25.3192" rx="2.19298" ry="2.12585" fill="#26272B"/>
<path d="M66.775 47.5L74.575 30H78.575L86.4 47.5H82.15L75.75 32.05H77.35L70.925 47.5H66.775ZM70.675 43.75L71.75 40.675H80.75L81.85 43.75H70.675ZM93.5436 47.7C92.2769 47.7 91.1352 47.4167 90.1186 46.85C89.1019 46.2833 88.2936 45.4833 87.6936 44.45C87.1102 43.4167 86.8186 42.1917 86.8186 40.775C86.8186 39.375 87.1102 38.1583 87.6936 37.125C88.2936 36.0917 89.1019 35.2917 90.1186 34.725C91.1352 34.1417 92.2769 33.85 93.5436 33.85C94.7269 33.85 95.7352 34.1 96.5686 34.6C97.4186 35.1 98.0686 35.8583 98.5186 36.875C98.9686 37.8917 99.1936 39.1917 99.1936 40.775C99.1936 42.3417 98.9602 43.6417 98.4936 44.675C98.0269 45.6917 97.3686 46.45 96.5186 46.95C95.6686 47.45 94.6769 47.7 93.5436 47.7ZM94.2186 44.5C94.8519 44.5 95.4269 44.35 95.9436 44.05C96.4602 43.75 96.8686 43.325 97.1686 42.775C97.4852 42.2083 97.6436 41.5417 97.6436 40.775C97.6436 39.9917 97.4852 39.325 97.1686 38.775C96.8686 38.225 96.4602 37.8 95.9436 37.5C95.4269 37.2 94.8519 37.05 94.2186 37.05C93.5686 37.05 92.9852 37.2 92.4686 37.5C91.9519 37.8 91.5352 38.225 91.2186 38.775C90.9186 39.325 90.7686 39.9917 90.7686 40.775C90.7686 41.5417 90.9186 42.2083 91.2186 42.775C91.5352 43.325 91.9519 43.75 92.4686 44.05C92.9852 44.35 93.5686 44.5 94.2186 44.5ZM97.5686 52.35V44.775L97.8186 40.8L97.7436 36.8V34.05H101.469V52.35H97.5686ZM110.754 47.7C109.638 47.7 108.638 47.4833 107.754 47.05C106.888 46.6167 106.213 45.9583 105.729 45.075C105.246 44.175 105.004 43.0333 105.004 41.65V34.05H108.904V41.075C108.904 42.1917 109.138 43.0167 109.604 43.55C110.088 44.0667 110.763 44.325 111.629 44.325C112.229 44.325 112.763 44.2 113.229 43.95C113.696 43.6833 114.063 43.2833 114.329 42.75C114.596 42.2 114.729 41.5167 114.729 40.7V34.05H118.629V47.5H114.929V43.8L115.604 44.875C115.154 45.8083 114.488 46.5167 113.604 47C112.738 47.4667 111.788 47.7 110.754 47.7ZM130.492 47.5V44.875L130.242 44.3V39.6C130.242 38.7667 129.984 38.1167 129.467 37.65C128.967 37.1833 128.192 36.95 127.142 36.95C126.426 36.95 125.717 37.0667 125.017 37.3C124.334 37.5167 123.751 37.8167 123.267 38.2L121.867 35.475C122.601 34.9583 123.484 34.5583 124.517 34.275C125.551 33.9917 126.601 33.85 127.667 33.85C129.717 33.85 131.309 34.3333 132.442 35.3C133.576 36.2667 134.142 37.775 134.142 39.825V47.5H130.492ZM126.392 47.7C125.342 47.7 124.442 47.525 123.692 47.175C122.942 46.8083 122.367 46.3167 121.967 45.7C121.567 45.0833 121.367 44.3917 121.367 43.625C121.367 42.825 121.559 42.125 121.942 41.525C122.342 40.925 122.967 40.4583 123.817 40.125C124.667 39.775 125.776 39.6 127.142 39.6H130.717V41.875H127.567C126.651 41.875 126.017 42.025 125.667 42.325C125.334 42.625 125.167 43 125.167 43.45C125.167 43.95 125.359 44.35 125.742 44.65C126.142 44.9333 126.684 45.075 127.367 45.075C128.017 45.075 128.601 44.925 129.117 44.625C129.634 44.3083 130.009 43.85 130.242 43.25L130.842 45.05C130.559 45.9167 130.042 46.575 129.292 47.025C128.542 47.475 127.576 47.7 126.392 47.7ZM143.697 47.8C142.297 47.8 140.955 47.6167 139.672 47.25C138.389 46.8667 137.355 46.375 136.572 45.775L137.947 42.725C138.697 43.2583 139.58 43.7 140.597 44.05C141.63 44.3833 142.672 44.55 143.722 44.55C144.522 44.55 145.164 44.475 145.647 44.325C146.147 44.1583 146.514 43.9333 146.747 43.65C146.98 43.3667 147.097 43.0417 147.097 42.675C147.097 42.2083 146.914 41.8417 146.547 41.575C146.18 41.2917 145.697 41.0667 145.097 40.9C144.497 40.7167 143.83 40.55 143.097 40.4C142.38 40.2333 141.655 40.0333 140.922 39.8C140.205 39.5667 139.547 39.2667 138.947 38.9C138.347 38.5333 137.855 38.05 137.472 37.45C137.105 36.85 136.922 36.0833 136.922 35.15C136.922 34.15 137.189 33.2417 137.722 32.425C138.272 31.5917 139.089 30.9333 140.172 30.45C141.272 29.95 142.647 29.7 144.297 29.7C145.397 29.7 146.48 29.8333 147.547 30.1C148.614 30.35 149.555 30.7333 150.372 31.25L149.122 34.325C148.305 33.8583 147.489 33.5167 146.672 33.3C145.855 33.0667 145.055 32.95 144.272 32.95C143.489 32.95 142.847 33.0417 142.347 33.225C141.847 33.4083 141.489 33.65 141.272 33.95C141.055 34.2333 140.947 34.5667 140.947 34.95C140.947 35.4 141.13 35.7667 141.497 36.05C141.864 36.3167 142.347 36.5333 142.947 36.7C143.547 36.8667 144.205 37.0333 144.922 37.2C145.655 37.3667 146.38 37.5583 147.097 37.775C147.83 37.9917 148.497 38.2833 149.097 38.65C149.697 39.0167 150.18 39.5 150.547 40.1C150.93 40.7 151.122 41.4583 151.122 42.375C151.122 43.3583 150.847 44.2583 150.297 45.075C149.747 45.8917 148.922 46.55 147.822 47.05C146.739 47.55 145.364 47.8 143.697 47.8ZM160.289 47.7C158.756 47.7 157.406 47.4 156.239 46.8C155.089 46.2 154.198 45.3833 153.564 44.35C152.931 43.3 152.614 42.1083 152.614 40.775C152.614 39.425 152.923 38.2333 153.539 37.2C154.173 36.15 155.031 35.3333 156.114 34.75C157.198 34.15 158.423 33.85 159.789 33.85C161.106 33.85 162.289 34.1333 163.339 34.7C164.406 35.25 165.248 36.05 165.864 37.1C166.481 38.1333 166.789 39.375 166.789 40.825C166.789 40.975 166.781 41.15 166.764 41.35C166.748 41.5333 166.731 41.7083 166.714 41.875H155.789V39.6H164.664L163.164 40.275C163.164 39.575 163.023 38.9667 162.739 38.45C162.456 37.9333 162.064 37.5333 161.564 37.25C161.064 36.95 160.481 36.8 159.814 36.8C159.148 36.8 158.556 36.95 158.039 37.25C157.539 37.5333 157.148 37.9417 156.864 38.475C156.581 38.9917 156.439 39.6083 156.439 40.325V40.925C156.439 41.6583 156.598 42.3083 156.914 42.875C157.248 43.425 157.706 43.85 158.289 44.15C158.889 44.4333 159.589 44.575 160.389 44.575C161.106 44.575 161.731 44.4667 162.264 44.25C162.814 44.0333 163.314 43.7083 163.764 43.275L165.839 45.525C165.223 46.225 164.448 46.7667 163.514 47.15C162.581 47.5167 161.506 47.7 160.289 47.7ZM177.561 33.85C178.628 33.85 179.578 34.0667 180.411 34.5C181.261 34.9167 181.928 35.5667 182.411 36.45C182.894 37.3167 183.136 38.4333 183.136 39.8V47.5H179.236V40.4C179.236 39.3167 178.994 38.5167 178.511 38C178.044 37.4833 177.378 37.225 176.511 37.225C175.894 37.225 175.336 37.3583 174.836 37.625C174.353 37.875 173.969 38.2667 173.686 38.8C173.419 39.3333 173.286 40.0167 173.286 40.85V47.5H169.386V34.05H173.111V37.775L172.411 36.65C172.894 35.75 173.586 35.0583 174.486 34.575C175.386 34.0917 176.411 33.85 177.561 33.85ZM191.196 47.7C190.046 47.7 188.938 47.5667 187.871 47.3C186.821 47.0167 185.988 46.6667 185.371 46.25L186.671 43.45C187.288 43.8333 188.013 44.15 188.846 44.4C189.696 44.6333 190.529 44.75 191.346 44.75C192.246 44.75 192.879 44.6417 193.246 44.425C193.629 44.2083 193.821 43.9083 193.821 43.525C193.821 43.2083 193.671 42.975 193.371 42.825C193.088 42.6583 192.704 42.5333 192.221 42.45C191.738 42.3667 191.204 42.2833 190.621 42.2C190.054 42.1167 189.479 42.0083 188.896 41.875C188.313 41.725 187.779 41.5083 187.296 41.225C186.813 40.9417 186.421 40.5583 186.121 40.075C185.838 39.5917 185.696 38.9667 185.696 38.2C185.696 37.35 185.938 36.6 186.421 35.95C186.921 35.3 187.638 34.7917 188.571 34.425C189.504 34.0417 190.621 33.85 191.921 33.85C192.838 33.85 193.771 33.95 194.721 34.15C195.671 34.35 196.463 34.6417 197.096 35.025L195.796 37.8C195.146 37.4167 194.488 37.1583 193.821 37.025C193.171 36.875 192.538 36.8 191.921 36.8C191.054 36.8 190.421 36.9167 190.021 37.15C189.621 37.3833 189.421 37.6833 189.421 38.05C189.421 38.3833 189.563 38.6333 189.846 38.8C190.146 38.9667 190.538 39.1 191.021 39.2C191.504 39.3 192.029 39.3917 192.596 39.475C193.179 39.5417 193.763 39.65 194.346 39.8C194.929 39.95 195.454 40.1667 195.921 40.45C196.404 40.7167 196.796 41.0917 197.096 41.575C197.396 42.0417 197.546 42.6583 197.546 43.425C197.546 44.2583 197.296 45 196.796 45.65C196.296 46.2833 195.571 46.7833 194.621 47.15C193.688 47.5167 192.546 47.7 191.196 47.7ZM206.627 47.7C205.094 47.7 203.744 47.4 202.577 46.8C201.427 46.2 200.536 45.3833 199.902 44.35C199.269 43.3 198.952 42.1083 198.952 40.775C198.952 39.425 199.261 38.2333 199.877 37.2C200.511 36.15 201.369 35.3333 202.452 34.75C203.536 34.15 204.761 33.85 206.127 33.85C207.444 33.85 208.627 34.1333 209.677 34.7C210.744 35.25 211.586 36.05 212.202 37.1C212.819 38.1333 213.127 39.375 213.127 40.825C213.127 40.975 213.119 41.15 213.102 41.35C213.086 41.5333 213.069 41.7083 213.052 41.875H202.127V39.6H211.002L209.502 40.275C209.502 39.575 209.361 38.9667 209.077 38.45C208.794 37.9333 208.402 37.5333 207.902 37.25C207.402 36.95 206.819 36.8 206.152 36.8C205.486 36.8 204.894 36.95 204.377 37.25C203.877 37.5333 203.486 37.9417 203.202 38.475C202.919 38.9917 202.777 39.6083 202.777 40.325V40.925C202.777 41.6583 202.936 42.3083 203.252 42.875C203.586 43.425 204.044 43.85 204.627 44.15C205.227 44.4333 205.927 44.575 206.727 44.575C207.444 44.575 208.069 44.4667 208.602 44.25C209.152 44.0333 209.652 43.7083 210.102 43.275L212.177 45.525C211.561 46.225 210.786 46.7667 209.852 47.15C208.919 47.5167 207.844 47.7 206.627 47.7Z" fill="white"/>
</svg>
