<svg width="1055" height="500" viewBox="-80 0 1225 675" fill="none" xmlns="http://www.w3.org/2000/svg">
<g filter="url(#filter0_d_564_239)">
<rect x="27" y="23" width="1001" height="653" rx="25" fill="white" shape-rendering="crispEdges"/>
<path d="M56 69C56 66.7909 57.7909 65 60 65H995C997.209 65 999 66.7909 999 69V609C999 622.807 987.807 634 974 634H81C67.1929 634 56 622.807 56 609V69Z" fill="#0084FF"/>
<ellipse cx="713" cy="157.5" rx="9" ry="8.5" fill="white"/>
<ellipse cx="9" cy="8.5" rx="9" ry="8.5" transform="matrix(-1 0 0 1 366 348)" fill="white"/>
<ellipse cx="9" cy="8.5" rx="9" ry="8.5" transform="matrix(-0.594431 0.804147 0.804147 0.594431 698.957 361.686)" fill="white"/>
<ellipse cx="4.21871" cy="3.98434" rx="4.21871" ry="3.98434" transform="matrix(-0.594431 0.804147 0.804147 0.594431 703.016 390)" fill="white"/>
<ellipse cx="9" cy="8.5" rx="9" ry="8.5" transform="matrix(-1 0 0 1 357 322)" fill="white"/>
<ellipse cx="9" cy="8.5" rx="9" ry="8.5" transform="matrix(-0.594431 0.804147 0.804147 0.594431 672.7 353.469)" fill="white"/>
<ellipse cx="9" cy="8.5" rx="9" ry="8.5" transform="matrix(-1 0 0 1 384 314)" fill="white"/>
<ellipse cx="9" cy="8.5" rx="9" ry="8.5" transform="matrix(-0.594431 0.804147 0.804147 0.594431 682.316 327)" fill="white"/>
<circle cx="726" cy="171" r="4" fill="white"/>
<path d="M768.945 360.309C770.48 360.046 772.367 359.782 773.113 359.695C773.814 359.607 776.622 359.607 779.343 359.695C782.063 359.782 785.704 360.133 787.459 360.528C789.214 360.879 792.066 361.669 793.821 362.283C795.576 362.854 798.647 364.17 800.621 365.135C802.639 366.144 805.623 367.855 807.334 368.952C809.001 370.005 811.853 372.155 813.695 373.69C815.494 375.182 818.17 377.683 819.618 379.218C821.11 380.754 823.391 383.255 824.708 384.834C826.068 386.414 828.481 389.616 830.06 391.986C831.683 394.311 833.087 396.11 833.219 395.934C833.351 395.715 833.438 395.846 833.438 396.154C833.438 396.417 833.175 396.768 832.868 396.856C832.561 396.987 825.41 397.075 816.986 397.075C808.518 397.119 801.411 396.987 801.148 396.812C800.841 396.592 800.49 395.188 800.314 393.609C800.139 392.029 799.568 389.397 798.998 387.686C798.427 386.019 797.287 383.43 796.409 381.982C795.532 380.535 794.216 378.604 791.978 376.016L770.919 397.119L746.657 397.031C727.396 396.943 722.439 397.031 722.658 397.47C722.746 397.733 722.658 397.908 722.439 397.777C722.176 397.645 722 397.119 722 396.592C722 396.022 722.395 395.013 722.877 394.267C723.36 393.565 723.711 393.17 723.711 393.39C723.711 393.653 725.247 391.766 727.133 389.222C729.02 386.677 731.872 383.123 733.451 381.324C735.074 379.526 738.014 376.674 739.988 374.963C741.919 373.296 745.077 370.839 746.92 369.566C748.763 368.25 751.878 366.407 753.808 365.442C755.739 364.477 759.292 363.029 761.705 362.196C764.118 361.406 767.365 360.572 768.945 360.309Z" fill="#274152"/>
<path d="M833.131 410.939C833.044 404.182 833.044 398.259 833.175 397.777C833.395 396.943 833.746 396.899 840.546 396.987C846.82 397.031 848.004 397.163 850.33 398.04C851.778 398.61 853.752 399.663 854.673 400.409C855.638 401.111 857.262 402.778 858.315 404.051C859.587 405.586 860.508 407.297 861.079 409.272C861.912 412.036 861.956 413.44 861.956 447.573L859.192 447.31C857.7 447.134 854.98 446.564 853.181 445.994C851.383 445.423 848.619 444.195 847.039 443.23C845.46 442.308 842.827 440.071 841.116 438.272C839.142 436.166 837.475 433.885 836.422 431.735C835.544 429.98 834.491 427.304 834.097 425.856C833.482 423.794 833.307 420.635 833.131 410.939Z" fill="#A8D3F6"/>
<path d="M724.457 403.173C723.843 401.769 723.404 400.541 723.536 400.453C723.711 400.322 724.896 401.769 726.256 403.612C727.572 405.455 729.107 407.561 729.634 408.263C730.117 408.965 733.012 412.036 736.039 415.063C739.067 418.09 742.752 421.468 744.244 422.565C745.779 423.662 748.719 425.593 750.825 426.865C752.975 428.137 756.265 429.761 758.196 430.506C760.126 431.252 763.592 432.349 765.873 432.963C768.55 433.621 771.928 434.104 775.306 434.279C779.255 434.455 781.712 434.367 785.178 433.753C787.722 433.358 791.452 432.437 793.514 431.779C795.576 431.121 798.735 429.848 800.533 428.927C802.332 428.006 804.614 426.777 805.579 426.163C807.29 425.11 807.334 425.11 807.904 425.9C808.211 426.382 809.571 428.576 810.975 430.77C812.335 433.007 815.099 437.175 817.074 439.983C819.048 442.835 822.075 446.827 823.786 448.889C825.497 450.951 828.919 454.681 831.376 457.138C833.833 459.638 837.212 462.797 838.923 464.157C840.59 465.517 842.169 466.702 842.345 466.834C842.52 467.009 840.853 468.325 838.616 469.773C836.378 471.265 833.438 473.02 832.122 473.678C830.806 474.336 827.91 475.564 825.761 476.398C823.567 477.232 820.145 478.328 818.083 478.767C816.021 479.25 811.897 479.732 808.869 479.864C804.877 480.039 802.113 479.952 798.778 479.425C796.234 479.03 792.197 478.021 789.784 477.232C787.371 476.442 783.905 475.038 782.107 474.117C780.308 473.195 777.237 471.484 775.306 470.3C773.376 469.071 769.998 466.658 767.848 464.903C765.654 463.148 761.618 459.375 758.81 456.479C756.046 453.628 752.097 449.24 750.079 446.696C748.105 444.151 744.595 439.325 742.357 435.947C740.164 432.568 737.18 427.83 735.776 425.417C734.416 423.004 731.564 417.564 729.415 413.352C727.309 409.14 725.071 404.533 724.457 403.173Z" fill="#A8D3F6"/>
<path d="M722.746 399.312C722.395 398.567 722.176 397.733 722.307 397.47C722.483 397.031 727.704 396.899 771.007 397.119L781.317 407.429C786.977 413.089 791.759 417.739 791.934 417.739C792.154 417.739 793.163 416.598 794.26 415.238C795.356 413.834 796.409 412.474 796.585 412.255C796.804 412.036 797.462 410.544 798.12 408.965C798.735 407.385 799.568 404.84 799.919 403.261C800.314 401.682 800.621 399.62 800.621 396.899H817.074C826.112 396.899 833.526 397.031 833.526 397.25C833.526 397.426 833.395 397.601 833.175 397.689C833 397.733 831.552 399.751 829.929 402.164C828.305 404.577 826.331 407.341 825.541 408.306C824.795 409.272 821.593 412.606 818.434 415.765C814.573 419.582 811.238 422.434 808.299 424.364C805.886 425.987 802.42 428.049 800.621 428.927C798.822 429.848 795.663 431.121 793.601 431.779C791.539 432.437 787.81 433.358 785.265 433.753C781.799 434.367 779.386 434.455 775.394 434.279C772.016 434.104 768.637 433.621 765.961 432.963C763.68 432.349 760.214 431.252 758.283 430.506C756.353 429.761 753.062 428.137 750.913 426.865C748.807 425.593 745.867 423.618 744.332 422.521C742.84 421.381 740.12 419.099 738.321 417.432C736.522 415.721 733.626 412.694 731.915 410.676C730.16 408.657 727.66 405.455 726.3 403.612C724.94 401.725 723.755 400.278 723.623 400.409C723.492 400.541 723.097 400.058 722.746 399.312Z" fill="#1B3649"/>
<path d="M744.419 383.167C744.902 382.377 746.13 381.368 747.139 380.929C748.324 380.359 749.465 380.14 750.298 380.315C751.044 380.447 752.097 380.842 752.624 381.149C753.194 381.5 754.028 382.421 754.51 383.167C755.081 384.088 755.388 385.273 755.344 386.37C755.3 387.335 754.905 388.695 754.51 389.441C754.071 390.187 753.018 391.108 752.141 391.503C751.264 391.942 749.991 392.293 749.245 392.293C748.5 392.293 747.929 392.073 747.929 391.854C747.929 391.635 747.666 391.459 747.359 391.503C747.096 391.547 746.437 391.371 745.955 391.108C745.472 390.889 744.726 389.924 744.288 389.046C743.893 388.169 743.542 386.808 743.542 386.019C743.542 385.273 743.937 383.957 744.419 383.167Z" fill="#201D30"/>
<path d="M798.12 314.636C799.568 314.417 801.455 314.154 802.288 314.066C803.122 313.978 805.93 313.978 808.562 314.066C811.151 314.11 814.792 314.505 816.679 314.899C818.521 315.25 821.768 316.172 823.918 316.874C826.024 317.576 829.358 318.98 831.376 319.945C833.351 320.954 836.597 322.84 838.615 324.113C840.59 325.429 842.169 326.657 842.125 326.833C842.038 327.052 840.59 328.369 838.923 329.772C837.255 331.176 834.316 333.809 832.429 335.652C830.543 337.494 827.164 341.136 824.883 343.812C822.646 346.444 819.048 351.095 816.942 354.122C814.792 357.149 811.765 361.712 807.334 368.951L805.798 367.942C804.965 367.416 802.639 366.144 800.665 365.134C798.647 364.169 795.576 362.853 793.865 362.239C792.11 361.668 789.17 360.879 787.371 360.44C785.178 359.957 781.975 359.738 777.719 359.694C773.2 359.694 770.348 359.914 767.848 360.484C765.917 360.879 762.671 361.844 760.609 362.546C758.546 363.292 755.388 364.608 753.589 365.529C751.79 366.451 748.763 368.249 746.92 369.566C745.077 370.838 741.962 373.295 739.988 374.962C738.014 376.629 734.986 379.613 733.275 381.543C731.564 383.474 728.888 386.808 727.309 388.914C725.729 391.02 724.281 392.775 724.106 392.731C723.886 392.731 723.755 392.599 723.755 392.38C723.755 392.204 725.817 387.905 728.318 382.859C730.775 377.77 734.284 371.189 736.039 368.162C737.794 365.134 741.085 359.914 743.41 356.535C745.692 353.157 749.07 348.506 750.869 346.225C752.711 343.944 756.792 339.469 759.95 336.31C763.065 333.151 767.628 329.114 770.041 327.316C772.454 325.517 776.096 323.104 778.158 321.919C780.22 320.778 783.159 319.287 784.739 318.585C786.318 317.883 789.346 316.83 791.539 316.172C793.733 315.558 796.672 314.856 798.12 314.636Z" fill="#EEEDEB"/>
<path d="M848.794 349.823C850.856 348.814 853.62 347.717 854.936 347.366C856.253 347.015 858.402 346.708 862 346.664L861.737 383.737L860.201 386.808C859.368 388.519 857.788 390.757 856.691 391.853C855.551 392.95 853.576 394.354 852.26 395.056C850.944 395.714 848.706 396.46 847.258 396.679C845.811 396.899 842.301 397.118 839.493 397.118C835.106 397.118 834.228 396.987 833.614 396.328C833 395.67 832.956 394.135 833.131 383.298C833.307 373.865 833.526 370.355 834.096 368.162C834.491 366.582 835.632 363.73 836.641 361.8C837.913 359.343 839.449 357.281 841.774 354.956C844.319 352.411 845.898 351.227 848.794 349.823Z" fill="#EEEDEB"/>
<path d="M770.919 397.118L781.448 386.589L791.978 376.015L793.426 377.682C794.216 378.604 795.576 380.534 796.409 381.982C797.287 383.43 798.471 386.106 799.086 387.905C799.831 390.186 800.27 392.555 800.402 395.583C800.621 399.136 800.489 400.672 799.7 403.699C799.217 405.761 798.076 408.832 797.243 410.5C796.365 412.167 794.83 414.536 791.803 417.958L770.919 397.118Z" fill="#EEEDEB"/>
<path d="M778.878 584.174C781.015 607.992 754.629 624.649 741.169 630C717.415 630 692.771 584.174 701.975 584.174C709.339 584.174 722.067 591.569 727.51 595.266C727.51 592.347 731.37 555.278 741.169 548.565C749.007 543.194 753.342 577.461 754.53 595.266C762.369 586.626 774.028 584.272 778.878 584.174Z" fill="#008021" stroke="#008021" stroke-width="7" stroke-linejoin="round"/>
<path d="M519.959 316.053L551.735 339.199L520.028 382.951L488.278 339.13C498.699 331.247 509.367 323.702 519.959 316.046M510.164 140.704L481.655 123.097L479.096 156.573L502.55 164.215L510.164 140.704ZM435.118 188.54L402.571 180.629L410.46 213.264H435.118V188.54ZM486.648 213.264H447.375V159.173L498.754 175.912C494.943 188.436 490.734 200.83 486.648 213.264ZM629.354 213.264L637.243 180.629L604.703 188.54V213.264H629.354ZM560.787 156.477L558.235 123L529.719 140.607L537.34 164.118L560.787 156.477ZM553.262 213.257L541.129 175.808L592.433 159.097V213.257C579.378 213.499 566.317 213.313 553.262 213.257ZM597.364 349.351L630.75 346.785L613.191 318.198L589.743 325.84L597.364 349.351ZM630.035 266.411L661 253.638L635.489 231.892L615.543 246.417L630.035 266.411ZM573.855 276.783L605.625 253.638L637.333 297.398L585.954 314.136C581.689 301.763 577.844 289.253 573.855 276.783ZM458.4 360.896L471.145 391.945L492.839 366.358L478.347 346.364L458.4 360.896ZM547.168 366.427L568.855 392L581.6 360.958L561.653 346.426L547.168 366.427ZM404.511 231.941L379 253.693L409.965 266.466L424.457 246.465L404.511 231.941ZM426.692 318.295L409.133 346.888L442.519 349.44L450.14 325.936L426.692 318.295ZM466.069 276.79L453.929 314.239L402.633 297.529L434.382 253.707C445.084 261.21 455.539 269.052 466.069 276.79Z" stroke="#F4DF24" stroke-width="9" stroke-linecap="round" stroke-linejoin="round"/>
<path d="M337.878 584.174C340.015 607.992 313.629 624.649 300.169 630C276.415 630 251.771 584.174 260.975 584.174C268.339 584.174 281.067 591.569 286.51 595.266C286.51 592.347 290.37 555.278 300.169 548.565C308.007 543.194 312.342 577.461 313.53 595.266C321.369 586.626 333.028 584.272 337.878 584.174Z" fill="#008021" stroke="#008021" stroke-width="7" stroke-linejoin="round"/>
<path d="M794.622 124.475C795.32 123.954 796.889 123.216 798.109 122.782C800.027 122.13 802.163 122.043 817.156 122C826.483 122 834.067 122.043 834.067 122.13C834.067 122.174 832.542 125.43 830.667 129.381C827.922 135.156 827.05 136.589 826.178 136.85C825.612 137.023 823.955 137.197 822.517 137.197C821.079 137.197 817.94 137.501 815.543 137.848C813.146 138.196 809.311 138.89 807.044 139.411C804.778 139.889 801.247 140.801 799.199 141.409C797.15 142.016 793.446 143.363 790.918 144.361C788.39 145.36 785.208 146.706 783.813 147.357C781.808 148.269 781.329 148.356 781.329 147.835C781.329 147.487 783.334 143.015 785.818 137.978C788.302 132.898 791.005 127.992 791.833 127.037C792.661 126.125 793.925 124.953 794.622 124.475Z" fill="#E3E3D8"/>
<path d="M850.194 124.258C851.283 123.607 852.852 122.868 853.68 122.564C854.77 122.174 859.87 122.043 872.074 122C881.401 122 888.985 122.043 888.985 122.13C888.985 122.174 887.851 124.649 886.413 127.645C885.018 130.641 882.273 136.329 880.311 140.367C878.393 144.361 876.606 147.618 876.345 147.618C876.083 147.618 874.863 147.097 873.599 146.489C872.379 145.837 869.066 144.491 866.32 143.493C863.574 142.451 858.475 140.931 854.988 140.063C851.501 139.238 847.012 138.326 844.963 138.022C842.915 137.718 841.215 137.414 841.128 137.327C841.084 137.24 842 135.243 843.22 132.855C844.397 130.467 846.053 127.818 846.794 126.95C847.579 126.081 849.104 124.866 850.194 124.258Z" fill="#E3E3D8"/>
<path d="M833.98 187.303C833.936 159.819 834.023 137.24 834.198 137.067C834.372 136.936 834.764 136.893 835.026 136.98C835.331 137.067 837.249 137.24 839.297 137.371C841.302 137.544 844.658 137.935 846.707 138.282C848.712 138.63 850.455 138.934 850.499 138.934C850.586 138.934 850.673 160.426 850.717 186.652C850.804 224.384 850.717 234.457 850.281 234.848C849.976 235.108 847.84 235.629 845.486 235.977C843.176 236.324 839.602 236.758 834.023 237.279L833.98 187.303Z" fill="#274152"/>
<path d="M945.297 147.01C947.171 146.402 950.091 145.707 951.835 145.49C953.578 145.273 957.37 145.143 965.477 145.23L965.433 153.479C965.433 161.295 965.346 161.903 964.257 165.116C963.603 166.939 962.47 169.501 961.772 170.76C961.075 171.976 959.593 174.147 958.503 175.536C957.414 176.882 955.409 178.923 954.014 180.009C952.663 181.094 949.961 182.744 948.043 183.699C946.125 184.611 943.379 185.697 941.941 186.088C940.197 186.522 936.623 186.826 923.635 187.216L921.02 190.516C919.582 192.34 915.354 196.856 904.893 207.32L904.763 187.781C904.719 177.056 904.763 167.938 904.893 167.591C905.068 167.157 906.811 168.589 910.821 172.584C913.915 175.71 917.969 180.052 923.199 186.348L923.461 179.878C923.591 176.361 923.853 172.584 924.027 171.498C924.245 170.413 924.855 168.199 925.466 166.505C926.032 164.855 927.035 162.597 927.645 161.512C928.255 160.426 929.781 158.342 931.001 156.823C932.221 155.303 934.27 153.262 935.621 152.22C936.929 151.221 938.89 149.875 939.98 149.268C941.026 148.66 943.466 147.618 945.297 147.01Z" fill="#274152"/>
<path d="M781.242 148.182C781.198 148.399 781.547 148.356 781.983 148.095C782.462 147.835 783.072 147.661 783.377 147.618C783.813 147.618 783.944 155.824 783.944 187.13C783.944 208.883 783.77 226.642 783.595 226.642C783.421 226.642 781.329 225.599 778.932 224.34C776.534 223.038 773.004 220.954 767.599 217.306V186.826C767.599 170.022 767.687 156.302 767.817 156.302C767.904 156.302 769.212 155.563 770.65 154.652C772.089 153.696 774.617 152.22 776.316 151.308C777.973 150.397 779.803 149.268 780.326 148.747C780.893 148.269 781.285 148.008 781.242 148.182Z" fill="#274152"/>
<path d="M817.069 137.675C819.117 137.414 821.95 137.153 823.389 137.067C824.827 136.98 827.834 136.893 834.067 136.763V211.879H832.847C832.193 211.879 830.449 211.575 828.924 211.228C827.442 210.88 825.001 209.968 823.519 209.23C821.994 208.492 819.902 207.233 818.812 206.451C817.723 205.67 815.761 203.89 814.454 202.457C813.146 201.067 811.359 198.549 810.487 196.899C809.616 195.206 808.613 192.861 808.221 191.689C807.872 190.473 807.436 188.997 807.044 187.13H783.944L783.9 147.401L786.428 146.228C787.823 145.577 790.743 144.405 792.879 143.58C795.015 142.755 798.153 141.713 799.853 141.191C801.552 140.67 805.257 139.802 808.134 139.194C811.01 138.586 815.02 137.892 817.069 137.675Z" fill="#83D2BD"/>
<path d="M850.63 187.13L850.542 139.021L853.288 139.628C854.814 139.976 857.56 140.67 859.347 141.148C861.134 141.669 864.577 142.798 866.974 143.71C869.371 144.622 873.381 146.358 875.909 147.531C878.437 148.703 882.621 150.918 885.28 152.524C887.939 154.087 891.687 156.519 893.605 157.908C895.566 159.298 898.835 161.816 904.632 166.505L904.675 187.13H850.63Z" fill="#83D2BD"/>
<path d="M756.703 164.986C758.621 163.379 761.715 160.861 763.633 159.428C765.507 157.995 767.251 156.909 767.469 156.996C767.73 157.127 767.904 163.162 767.817 187.13H752.127C743.497 187.13 736.349 186.999 736.218 186.782C736.131 186.609 737.525 184.698 739.312 182.571C741.099 180.4 744.979 176.231 747.899 173.279C750.819 170.326 754.785 166.592 756.703 164.986Z" fill="#83D2BD"/>
<path d="M738.266 190.299C737.002 188.78 736 187.434 736 187.26C736 187.043 743.148 186.956 767.817 187.13L767.817 202.109C767.817 211.792 767.643 217.089 767.381 217.089C767.12 217.089 765.202 215.787 763.067 214.18C760.974 212.53 758.054 210.272 756.659 209.057C755.221 207.884 751.647 204.454 748.64 201.415C745.632 198.419 742.581 195.292 741.84 194.468C741.099 193.643 739.487 191.775 738.266 190.299Z" fill="#1B8988"/>
<path d="M783.944 226.859V187.13H807.044L807.306 188.345C807.436 188.997 807.872 190.516 808.221 191.689C808.613 192.904 809.616 195.206 810.487 196.899C811.359 198.549 813.233 201.154 814.672 202.674C816.11 204.237 818.551 206.278 820.12 207.276C821.689 208.318 823.999 209.534 825.263 210.055C826.483 210.576 829.011 211.271 834.067 212.096V237.062H828.314C825.132 237.062 820.076 236.758 817.069 236.411C814.061 236.02 809.485 235.239 806.826 234.674C804.168 234.066 799.983 232.937 797.455 232.112C794.927 231.331 790.874 229.811 783.944 226.859Z" fill="#1B8988"/>
<path d="M851.414 234.935C850.673 234.935 850.63 233.502 850.63 211.054V187.173H904.588L904.457 207.711L899.663 211.575C897.048 213.702 892.995 216.655 890.728 218.175C888.462 219.694 884.626 221.996 882.229 223.342C879.832 224.688 875.735 226.728 873.076 227.901C870.461 229.03 866.146 230.723 863.487 231.591C860.872 232.416 857.211 233.545 855.424 234.023C853.637 234.501 851.806 234.935 851.414 234.935Z" fill="#1B8988"/>
<path d="M923.286 187.13L929.824 186.999C933.398 186.912 936.841 186.912 937.452 186.956C938.062 186.999 940.023 187.434 941.81 187.955C943.597 188.432 946.735 189.691 948.784 190.69C951.704 192.166 953.273 193.339 956.193 196.248C958.242 198.288 960.595 201.111 961.424 202.544C962.252 203.976 963.516 206.712 964.213 208.622C965.39 211.879 965.477 212.66 966 228.899L957.937 228.682C952.271 228.552 949.089 228.248 947.258 227.727C945.82 227.336 943.031 226.207 941.026 225.209C938.89 224.123 936.188 222.3 934.531 220.78C932.919 219.347 930.914 217.219 930.042 216.004C929.17 214.831 927.776 212.574 926.991 211.01C926.207 209.447 925.204 206.712 924.725 204.932C924.114 202.63 923.766 199.548 923.286 187.13Z" fill="#1B3649"/>
<path d="M886.675 220.78C889.072 219.304 891.992 217.437 893.169 216.568L895.348 214.962L897.266 218.956C898.312 221.171 900.448 225.556 901.973 228.726C903.499 231.852 904.763 234.544 904.763 234.674C904.763 234.804 899.227 234.848 892.428 234.804C881.139 234.674 880.006 234.587 878.393 233.806C877.435 233.328 875.909 232.199 875.037 231.331C874.122 230.419 873.381 229.464 873.381 229.247C873.381 229.03 872.945 228.769 872.379 228.769C871.507 228.726 871.507 228.682 872.291 228.509C872.771 228.378 873.25 228.161 873.381 227.988C873.512 227.857 875.56 226.772 877.958 225.556C880.355 224.384 884.277 222.213 886.675 220.78Z" fill="#1B3649"/>
<path d="M814.236 241.665C812.972 239.016 811.926 236.585 811.969 236.281C812.013 235.847 812.449 235.76 813.582 235.933C814.454 236.064 817.112 236.411 819.51 236.715C822.168 237.019 827.355 237.106 832.585 237.019C838.687 236.845 841.346 236.932 841.346 237.279C841.389 237.54 842 239.016 842.741 240.579C843.438 242.099 844.876 245.051 845.835 247.092C846.838 249.09 847.535 250.826 847.448 250.87C847.361 250.957 841.956 251 835.462 251C825.045 251 823.432 250.87 821.82 250.175C820.774 249.741 819.204 248.742 818.246 247.917C817.112 246.875 815.848 244.965 814.236 241.665Z" fill="#1B3649"/>
<path d="M772.132 167.113C772.045 166.853 772.699 166.375 773.527 166.028C774.399 165.68 775.793 165.55 776.796 165.68C777.755 165.81 779.062 166.288 779.76 166.766C780.413 167.2 781.242 168.155 781.59 168.893C781.939 169.631 782.244 170.891 782.244 171.716C782.244 172.541 781.895 173.93 781.503 174.798C781.067 175.667 780.152 176.752 779.411 177.186C778.583 177.708 777.275 178.011 775.837 178.011C773.919 178.011 773.265 177.794 772.132 176.796C771.391 176.144 770.52 174.972 770.171 174.19C769.866 173.452 769.604 172.28 769.604 171.585C769.604 170.934 769.997 169.718 770.432 168.893C770.912 168.068 771.478 167.417 771.74 167.46C772.002 167.547 772.176 167.374 772.132 167.113Z" fill="#201D30"/>
<path d="M257.048 310.473C253.884 309.873 248.757 309.055 245.594 308.619C241.557 308.128 234.576 307.964 222.14 308.073C209.05 308.237 202.996 308.51 199.068 309.164C196.178 309.655 191.378 310.528 188.433 311.182C185.542 311.782 179.433 313.528 174.96 315.055C170.433 316.527 163.561 319.255 159.688 321.164C155.816 323.018 150.525 325.854 147.962 327.491C145.398 329.072 141.635 331.636 139.507 333.218C137.38 334.745 134.708 336.872 133.562 337.908C132.362 338.945 129.526 341.617 127.235 343.854C124.944 346.09 123.144 348.272 123.254 348.653C123.363 348.981 123.417 351.381 123.417 358.58H216.686V392.397H218.704C219.849 392.397 222.467 392.015 224.595 391.579C226.722 391.142 230.103 389.942 232.231 388.906C234.358 387.924 237.521 385.961 239.321 384.652C241.121 383.288 243.794 380.616 245.321 378.707C246.794 376.798 248.866 373.525 249.903 371.398C250.939 369.271 252.139 365.562 253.502 358.58L334.062 358.307L331.444 354.762C330.026 352.799 325.881 348.272 322.281 344.617C318.627 341.017 313.936 336.708 311.863 335.072C309.791 333.436 305.809 330.6 303.137 328.854C300.464 327.109 295.391 324.273 291.955 322.527C288.519 320.782 283.447 318.491 280.774 317.4C278.101 316.309 272.92 314.564 269.32 313.528C265.72 312.491 260.211 311.128 257.048 310.473Z" fill="#00A4BD"/>
<path d="M245.866 299.509C244.666 298.909 242.485 298.091 240.958 297.709C238.939 297.218 230.54 297 208.341 297C191.923 297 178.451 297.055 178.451 297.109C178.451 297.164 179.978 300.436 181.833 304.309C183.687 308.236 185.215 311.454 185.269 311.563C185.324 311.672 187.396 311.29 189.96 310.799C192.523 310.309 196.832 309.545 199.505 309.109C202.723 308.563 209.704 308.236 219.795 308.072C231.685 307.909 235.231 307.69 235.231 307.2C235.231 306.709 235.34 306.654 235.667 307.09C235.885 307.418 238.994 308.018 242.594 308.4C246.194 308.727 250.339 309.272 251.866 309.545C253.339 309.818 254.702 309.927 254.866 309.763C255.03 309.654 254.484 308.4 253.666 307.036C252.793 305.672 251.212 303.709 250.121 302.618C248.975 301.527 247.066 300.163 245.866 299.509Z" fill="#E3E3D8"/>
<path d="M123.308 348.707C123.199 348.38 117.036 345.816 109.509 343.034C102.036 340.198 95.0548 337.907 94.1276 337.907C92.8186 337.853 91.8913 338.289 89.0551 341.125L89.3278 358.306H122.872L122.926 379.033L127.126 387.214C129.471 391.741 132.962 397.959 134.926 401.014C136.835 404.123 140.762 409.795 143.598 413.559C146.434 417.377 151.616 423.376 155.052 426.976C158.488 430.521 163.288 435.049 165.688 436.958C168.088 438.867 172.124 441.866 174.688 443.557C177.251 445.194 181.669 447.757 184.505 449.175C187.342 450.593 192.632 452.775 196.232 453.975C200.05 455.229 205.395 456.538 209.05 457.084C214.013 457.793 217.831 457.902 227.594 457.684C236.103 457.466 241.121 457.138 243.957 456.484C246.194 455.993 250.284 454.848 252.957 453.975C255.63 453.102 260.538 451.03 263.866 449.448C267.193 447.812 271.938 445.084 274.502 443.394C277.065 441.648 280.829 438.867 282.956 437.176C285.028 435.485 289.228 431.667 292.228 428.667C295.228 425.667 299.755 420.649 302.264 417.486C304.773 414.322 308.482 409.304 310.5 406.304C312.518 403.304 315.572 398.396 317.318 395.396C319.009 392.396 321.518 387.814 322.827 385.196C324.136 382.524 325.227 380.124 325.227 379.851C325.227 379.578 322.827 377.887 319.936 376.087C316.991 374.342 309.355 369.706 291.41 358.579H253.502L252.63 363.106C252.139 365.779 250.884 369.324 249.63 371.942C248.484 374.288 246.957 376.906 246.303 377.669C245.594 378.433 245.157 379.196 245.321 379.469C245.485 379.687 245.43 379.796 245.212 379.742C244.939 379.633 244.721 379.742 244.666 380.015C244.557 380.233 243.412 381.324 242.048 382.469C240.685 383.56 239.539 384.814 239.594 385.196C239.594 385.523 239.812 385.742 240.139 385.578C240.467 385.414 240.521 385.687 240.303 386.287C240.085 386.832 239.867 386.942 239.758 386.56C239.648 386.123 239.321 386.014 238.939 386.232C238.467 386.523 238.376 386.432 238.667 385.96C238.885 385.632 238.939 385.305 238.776 385.305C238.612 385.305 237.849 385.796 237.03 386.342C236.158 386.942 233.921 388.141 231.958 389.069C229.994 389.996 226.722 391.141 224.595 391.578C222.467 392.014 219.849 392.396 216.686 392.396V358.579H123.417V353.943C123.417 351.379 123.363 349.034 123.308 348.707Z" fill="#E3E3D8"/>
<path d="M122.872 378.76V358.306L89.0005 358.306L89.3278 385.414L90.8005 386.723C91.6732 387.432 92.8731 388.032 93.5276 388.032C94.2367 388.032 101.109 385.96 122.872 378.76Z" fill="#A8D3F6"/>
<path d="M297.628 336.926C297.191 336.216 296.046 335.18 295.064 334.526H295.119C293.701 333.653 292.719 333.489 290.592 333.653C289.119 333.817 287.319 334.253 286.61 334.635C285.901 335.071 284.81 336.271 284.21 337.307C283.337 338.78 283.119 339.871 283.283 342.053C283.447 344.234 283.828 345.216 285.137 346.58C286.01 347.507 287.646 348.543 288.683 348.87C289.719 349.198 291.519 349.307 292.664 349.089C293.973 348.87 295.392 348.052 296.591 346.852C297.628 345.816 298.664 344.125 298.828 343.198C299.046 342.216 298.991 340.634 298.773 339.762C298.61 338.889 298.064 337.58 297.628 336.926Z" fill="#201D30"/>
</g>
<defs>
<filter id="filter0_d_564_239" x="0.9" y="0.9" width="1053.2" height="705.2" filterUnits="userSpaceOnUse" color-interpolation-filters="sRGB">
<feFlood flood-opacity="0" result="BackgroundImageFix"/>
<feColorMatrix in="SourceAlpha" type="matrix" values="0 0 0 0 0 0 0 0 0 0 0 0 0 0 0 0 0 0 127 0" result="hardAlpha"/>
<feOffset dy="4"/>
<feGaussianBlur stdDeviation="13.05"/>
<feComposite in2="hardAlpha" operator="out"/>
<feColorMatrix type="matrix" values="0 0 0 0 1 0 0 0 0 1 0 0 0 0 1 0 0 0 0.1 0"/>
<feBlend mode="normal" in2="BackgroundImageFix" result="effect1_dropShadow_564_239"/>
<feBlend mode="normal" in="SourceGraphic" in2="effect1_dropShadow_564_239" result="shape"/>
</filter>
</defs>
</svg>
