<svg width="300" height="200" viewBox="0 0 400 410" fill="none" xmlns="http://www.w3.org/2000/svg">
<g filter="url(#filter0_d_552_85)">
<g clip-path="url(#clip0_552_85)">
<rect x="110.377" width="389" height="162" rx="25" transform="rotate(21 110.377 0)" fill="#0184FF"/>
<g clip-path="url(#clip1_552_85)">
<path d="M332.061 158.469C333.249 155.374 333.159 151.934 331.81 148.905C330.462 145.877 327.966 143.508 324.871 142.32L287.994 128.164L303.831 103.649C304.172 103.11 304.477 102.491 304.723 101.849C305.642 99.4568 305.501 96.8588 304.53 94.6787L300.697 86.1779L247.566 109.833C244.578 111.164 242.174 113.588 240.942 116.798L218.544 175.146C217.356 178.241 217.446 181.682 218.795 184.71C220.143 187.739 222.64 190.108 225.735 191.296L278.248 211.454C283.091 213.313 288.354 211.986 291.717 208.457L325.129 174.085C326.169 172.944 326.999 171.656 327.581 170.139L332.061 158.469ZM179.056 173.377L202.395 182.336L229.273 112.318L205.933 103.359L179.056 173.377Z" fill="white"/>
</g>
</g>
</g>
<path d="M210.672 213.096C210.87 212.58 211.448 212.323 211.964 212.52L256.776 229.722C257.291 229.92 257.549 230.498 257.351 231.014L213.272 345.844C208.917 357.188 196.192 362.853 184.849 358.499L179.247 356.349C167.904 351.995 162.238 339.269 166.593 327.926L210.672 213.096Z" fill="#0084FF"/>
<path d="M114.862 261.027C117.27 288.04 87.5441 306.931 72.3799 313C45.6195 313 17.8556 261.027 28.2253 261.027C36.521 261.027 50.8601 269.413 56.9927 273.606C56.9927 270.296 61.3413 228.254 72.3799 220.64C81.2108 214.549 86.0946 253.413 87.4326 273.606C96.2636 263.808 109.398 261.137 114.862 261.027Z" fill="white" stroke="white" stroke-width="8" stroke-linejoin="round"/>
<path d="M207.861 261.027C210.296 288.04 180.236 306.931 164.901 313C137.84 313 109.764 261.027 120.25 261.027C128.639 261.027 143.139 269.413 149.341 273.606C149.341 270.296 153.738 228.254 164.901 220.64C173.831 214.549 178.77 253.413 180.123 273.606C189.053 263.808 202.336 261.137 207.861 261.027Z" fill="white" stroke="white" stroke-width="8" stroke-linejoin="round"/>
<rect x="21" y="288" width="193" height="114" rx="25" fill="white"/>
<path d="M189.5 401.999H42C29.1999 401.999 22.6667 387.333 21.0001 380V321.5C19.0001 302.7 29.1667 293.333 34.5 291C29 284.333 18.9 268.9 22.5 260.5C26.1 252.1 44.6666 261 53.5 266.5C57 236 65 216 74.5 216C84.3387 216 89.1666 247.167 91 265.5C105 256.3 114.5 256.667 117.5 258C122.3 254.8 138.5 262.333 146 266.5C147 247.5 154.5 219 166.5 216C176.5 213.5 182 247.999 183.5 265.499C200.7 255.099 208.667 256.166 210.5 257.999C216.9 265.199 207.167 283.333 201.5 291.499C211.1 297.099 213.5 307.166 213.5 311.499C214 328.999 213.6 366.199 214 378.999C214.4 391.799 199.5 401.999 189.5 401.999Z" stroke="#949494"/>
<rect x="29" y="295" width="175" height="95" rx="25" fill="#DBAB4A"/>
<path d="M97.5 340.348C97.5 340.348 88 324.501 70.5 324.5M88 347.5C88 347.5 80.5 340 70.5 340.348C60 340.348 54 347.5 54 347.5" stroke="#CE8832" stroke-width="4" stroke-linecap="round"/>
<path d="M187.5 340.348C187.5 340.348 178 324.501 160.5 324.5M178 347.5C178 347.5 170.5 340 160.5 340.348C150 340.348 144 347.5 144 347.5" stroke="#CE8832" stroke-width="4" stroke-linecap="round"/>
<path d="M70.4978 377L70.498 329.5L70.4972 308" stroke="#CE8832" stroke-width="4" stroke-linecap="round"/>
<path d="M160.498 377L160.498 329.5L160.497 308" stroke="#CE8832" stroke-width="4" stroke-linecap="round"/>
<path d="M45 342C49.0619 332.026 57 324.5 70.5001 324.5" stroke="#CE8832" stroke-width="4" stroke-linecap="round"/>
<path d="M135 342C139.062 332.026 147 324.5 160.5 324.5" stroke="#CE8832" stroke-width="4" stroke-linecap="round"/>
<path d="M58 361C58 361 64.5001 355 70.5 355C76.4999 355 83 361 83 361" stroke="#CE8832" stroke-width="3" stroke-linecap="round"/>
<path d="M148 361C148 361 154.5 355 160.5 355C166.5 355 173 361 173 361" stroke="#CE8832" stroke-width="3" stroke-linecap="round"/>
<path d="M109.879 267.174C111.99 290.992 85.9376 307.649 72.6476 313C49.1946 313 24.8622 267.174 33.9502 267.174C41.2206 267.174 53.7875 274.569 59.1621 278.266C59.1621 275.347 62.9732 238.278 72.6476 231.565C80.387 226.194 84.6672 260.461 85.8398 278.266C93.5793 269.626 105.091 267.272 109.879 267.174Z" fill="#008021" stroke="#008021" stroke-width="7" stroke-linejoin="round"/>
<path d="M201.878 267.174C204.015 290.992 177.629 307.649 164.169 313C140.415 313 115.771 267.174 124.975 267.174C132.339 267.174 145.067 274.569 150.51 278.266C150.51 275.347 154.37 238.278 164.169 231.565C172.007 226.194 176.342 260.461 177.53 278.266C185.369 269.626 197.028 267.272 201.878 267.174Z" fill="#008021" stroke="#008021" stroke-width="7" stroke-linejoin="round"/>
<defs>
<filter id="filter0_d_552_85" x="48.3213" y="0" width="429.219" height="298.645" filterUnits="userSpaceOnUse" color-interpolation-filters="sRGB">
<feFlood flood-opacity="0" result="BackgroundImageFix"/>
<feColorMatrix in="SourceAlpha" type="matrix" values="0 0 0 0 0 0 0 0 0 0 0 0 0 0 0 0 0 0 127 0" result="hardAlpha"/>
<feOffset dy="4"/>
<feGaussianBlur stdDeviation="2"/>
<feComposite in2="hardAlpha" operator="out"/>
<feColorMatrix type="matrix" values="0 0 0 0 0 0 0 0 0 0 0 0 0 0 0 0 0 0 0.25 0"/>
<feBlend mode="normal" in2="BackgroundImageFix" result="effect1_dropShadow_552_85"/>
<feBlend mode="normal" in="SourceGraphic" in2="effect1_dropShadow_552_85" result="shape"/>
</filter>
<clipPath id="clip0_552_85">
<rect x="110.377" width="389" height="162" rx="25" transform="rotate(21 110.377 0)" fill="white"/>
</clipPath>
<clipPath id="clip1_552_85">
<rect width="150" height="150" fill="white" transform="translate(220.257 48.6055) rotate(21)"/>
</clipPath>
</defs>
</svg>
