<svg width="50" height="51" viewBox="0 0 50 51" fill="none" xmlns="http://www.w3.org/2000/svg">
<path d="M25.0003 4.66602C13.4941 4.66602 4.16699 13.9931 4.16699 25.4994C4.16699 37.0056 13.4941 46.3327 25.0003 46.3327C36.5066 46.3327 45.8337 37.0056 45.8337 25.4994C45.8337 13.9931 36.5066 4.66602 25.0003 4.66602Z" stroke="#0084FF" stroke-width="3" stroke-linecap="round" stroke-linejoin="round"/>
<path d="M8.89844 38.7208C8.89844 38.7208 13.5422 32.7917 25.0005 32.7917C36.4589 32.7917 41.1047 38.7208 41.1047 38.7208M25.0005 25.5C26.6581 25.5 28.2478 24.8415 29.4199 23.6694C30.592 22.4973 31.2505 20.9076 31.2505 19.25C31.2505 17.5924 30.592 16.0027 29.4199 14.8306C28.2478 13.6585 26.6581 13 25.0005 13C23.3429 13 21.7532 13.6585 20.5811 14.8306C19.409 16.0027 18.7505 17.5924 18.7505 19.25C18.7505 20.9076 19.409 22.4973 20.5811 23.6694C21.7532 24.8415 23.3429 25.5 25.0005 25.5Z" stroke="#0084FF" stroke-width="1.5" stroke-linecap="round" stroke-linejoin="round"/>
</svg>
