<svg width="650" height="375" viewBox="0 15 650 500" fill="none" xmlns="http://www.w3.org/2000/svg">
<g filter="url(#filter0_d_535_233)">
<rect x="27" y="140" width="534" height="356" rx="25" fill="white" shape-rendering="crispEdges"/>
<path d="M62 366C62 363.791 63.7909 362 66 362H522C524.209 362 526 363.791 526 366V439C526 452.807 514.807 464 501 464H87C73.1929 464 62 452.807 62 439V366Z" fill="#0084FF"/>
<path d="M143.349 423.272C139.008 405.087 159.387 402.061 168.306 406.139C169.447 406.239 171.911 405.949 172.635 403.988C173.539 401.538 170.747 391.404 175.979 386.803C181.212 382.202 195.021 405.719 192.944 411.056C190.866 416.394 174.854 410.162 175.358 412.276C175.762 413.967 174.366 417.479 173.618 419.023C175.251 419.626 178.271 421.04 177.278 421.873C176.037 422.915 148.226 443.705 143.349 423.272Z" fill="#FD8E00"/>
<path d="M183.842 407.268C185.576 406.729 189.909 405.223 190.552 404.176" stroke="#FCEAD6" stroke-width="2" stroke-linecap="round"/>
<path d="M181.523 402.234C183.088 400.992 186.38 398.244 187.024 397.197" stroke="#FCEAD6" stroke-width="2" stroke-linecap="round"/>
<ellipse cx="149.082" cy="420.783" rx="3.07372" ry="2.56143" transform="rotate(-58.4306 149.082 420.783)" fill="#FCEAD6"/>
<path d="M255.349 445.271C251.008 427.086 272.081 423.423 281 427.5C282.141 427.6 283.911 427.948 284.634 425.988C285.539 423.537 282.747 413.404 287.979 408.802C293.212 404.201 307.021 427.718 304.944 433.056C302.866 438.393 285.618 436.501 285.618 436.501L285.617 436.5C284.634 447.5 260.226 465.705 255.349 445.271Z" fill="#FD8E00"/>
<path d="M255.349 445.271C251.008 427.086 272.081 423.423 281 427.5C282.141 427.6 283.911 427.948 284.634 425.988C285.539 423.537 282.747 413.404 287.979 408.802C293.212 404.201 307.021 427.718 304.944 433.056C302.866 438.393 285.618 436.501 285.618 436.501L285.617 436.5C284.634 447.5 260.226 465.705 255.349 445.271Z" fill="#FD8E00"/>
<path d="M295.842 429.268C297.576 428.729 301.909 427.223 302.552 426.176" stroke="#FCEAD6" stroke-width="2" stroke-linecap="round"/>
<path d="M293.523 424.234C295.088 422.992 298.38 420.244 299.024 419.197" stroke="#FCEAD6" stroke-width="2" stroke-linecap="round"/>
<ellipse cx="261.082" cy="442.783" rx="3.07372" ry="2.56143" transform="rotate(-58.4306 261.082 442.783)" fill="#FCEAD6"/>
<path d="M257.58 360.292C271.691 348.028 284.691 365.012 285.205 374.805C285.645 375.863 286.155 377.593 288.227 377.327C290.818 376.995 298.509 369.83 305.009 372.338C311.51 374.847 297.054 397.972 291.362 398.601C285.669 399.23 279.363 383.065 279.363 383.065L279.364 383.064C269.158 387.283 241.723 374.072 257.58 360.292Z" fill="#FD8E00"/>
<path d="M257.58 360.292C271.691 348.028 284.691 365.012 285.205 374.805C285.645 375.863 286.155 377.593 288.227 377.327C290.818 376.995 298.509 369.83 305.009 372.338C311.51 374.847 297.054 397.972 291.362 398.601C285.669 399.23 279.363 383.065 279.363 383.065L279.364 383.064C269.158 387.283 241.723 374.072 257.58 360.292Z" fill="#FD8E00"/>
<path d="M290.507 388.781C291.787 390.069 295.127 393.213 296.354 393.298" stroke="#FCEAD6" stroke-width="2" stroke-linecap="round"/>
<path d="M293.896 384.395C295.722 385.207 299.681 386.853 300.907 386.939" stroke="#FCEAD6" stroke-width="2" stroke-linecap="round"/>
<ellipse cx="262.439" cy="364.223" rx="3.07372" ry="2.56143" transform="rotate(4 262.439 364.223)" fill="#FCEAD6"/>
<path d="M362.747 394.949C348.216 383.185 336.692 400.262 336.52 410.067C336.118 411.14 334.793 413.237 332.712 413.044C330.111 412.802 322.175 405.91 315.766 408.644C309.357 411.378 324.611 433.985 330.322 434.415C336.034 434.844 337.323 417.71 339.012 419.078C340.364 420.172 344.134 420.429 345.85 420.42C345.689 422.154 345.662 425.488 346.841 424.952C348.316 424.282 379.074 408.168 362.747 394.949Z" fill="#FD8E00"/>
<path d="M330.833 424.568C329.599 425.9 326.37 429.158 325.147 429.287" stroke="#FCEAD6" stroke-width="2" stroke-linecap="round"/>
<path d="M327.294 420.305C325.498 421.18 321.599 422.964 320.376 423.092" stroke="#FCEAD6" stroke-width="2" stroke-linecap="round"/>
<ellipse cx="3.07372" cy="2.56143" rx="3.07372" ry="2.56143" transform="matrix(-0.994522 0.104528 0.104528 0.994522 360.816 396.178)" fill="#FCEAD6"/>
<path d="M469.138 386.435C454.607 374.671 443.083 391.748 442.912 401.553C442.509 402.626 441.184 404.724 439.104 404.53C436.503 404.289 428.567 397.396 422.158 400.13C415.749 402.864 431.002 425.471 436.714 425.901C442.425 426.331 443.715 409.197 445.404 410.564C446.755 411.659 450.525 411.915 452.241 411.906C452.08 413.64 452.053 416.974 453.233 416.438C454.708 415.768 485.466 399.654 469.138 386.435Z" fill="#FD8E00"/>
<path d="M437.224 416.055C435.99 417.386 432.762 420.645 431.539 420.773" stroke="#FCEAD6" stroke-width="2" stroke-linecap="round"/>
<path d="M433.686 411.791C431.889 412.667 427.99 414.45 426.768 414.579" stroke="#FCEAD6" stroke-width="2" stroke-linecap="round"/>
<ellipse cx="3.07372" cy="2.56143" rx="3.07372" ry="2.56143" transform="matrix(-0.994522 0.104528 0.104528 0.994522 467.208 387.664)" fill="#FCEAD6"/>
<path d="M62 442H46.5V275.5H62" stroke="#949494" stroke-width="6"/>
<path d="M526 400H541.5V294H526" stroke="#949494" stroke-width="6"/>
<g clip-path="url(#clip0_535_233)">
<rect x="62" y="224" width="464" height="102" rx="25" fill="#DBAB4A"/>
<path d="M347.638 342C347.762 338.264 346.529 325.65 340.618 310.356C334.708 295.061 336.678 265.746 338.402 253" stroke="#CE8832" stroke-width="4" stroke-linecap="round"/>
<path d="M457.497 312.5C457.62 308.764 425.408 291.295 419.497 276C413.586 260.705 424.528 250.746 426.253 238" stroke="#CE8832" stroke-width="4" stroke-linecap="round"/>
<path d="M467.997 317.5C468.121 313.764 469.833 283.295 463.922 268C458.011 252.705 427.273 260.746 428.997 248" stroke="#CE8832" stroke-width="4" stroke-linecap="round"/>
<path d="M279.5 345C279.623 341.264 275.911 320.795 270 305.5C264.089 290.205 245.032 269.746 246.756 257" stroke="#CE8832" stroke-width="4" stroke-linecap="round"/>
<path d="M224 364C224.123 360.264 250.265 321.795 244.354 306.5C238.443 291.205 242.63 272.746 244.354 260" stroke="#CE8832" stroke-width="4" stroke-linecap="round"/>
<path d="M175.992 333C176.115 329.264 174.903 307.295 168.993 292C163.082 276.705 132.024 269.746 133.748 257M150.493 274.798C146.993 289.132 142.093 315.5 150.493 321.5" stroke="#CE8832" stroke-width="4" stroke-linecap="round"/>
<path d="M325.654 348C325.531 344.012 319.744 317.826 325.654 301.5C331.565 285.174 336.615 266.605 334.891 253" stroke="#CE8832" stroke-width="4" stroke-linecap="round"/>
<path d="M413.505 333C413.382 329.012 391.086 279.826 396.997 263.5C402.908 247.174 424.466 251.605 422.742 238" stroke="#CE8832" stroke-width="4" stroke-linecap="round"/>
<path d="M176 343.5C175.877 339.512 202.5 335 212.5 295C216.712 278.155 244.969 270.605 243.245 257" stroke="#CE8832" stroke-width="4" stroke-linecap="round"/>
<path d="M121.469 352C98.4609 347 97.0501 316.826 102.961 300.5C108.872 284.174 132.429 270.605 130.705 257" stroke="#CE8832" stroke-width="4" stroke-linecap="round"/>
</g>
<path d="M170.878 208.174C173.015 231.992 146.629 248.649 133.169 254C109.415 254 84.7707 208.174 93.9752 208.174C101.339 208.174 114.067 215.569 119.51 219.266C119.51 216.347 123.37 179.278 133.169 172.565C141.007 167.194 145.342 201.461 146.53 219.266C154.369 210.626 166.028 208.272 170.878 208.174Z" fill="#008021" stroke="#008021" stroke-width="7" stroke-linejoin="round"/>
<path d="M281.879 208.174C283.99 231.992 257.938 248.649 244.648 254C221.195 254 196.862 208.174 205.95 208.174C213.221 208.174 225.787 215.569 231.162 219.266C231.162 216.347 234.973 179.278 244.648 172.565C252.387 167.194 256.667 201.461 257.84 219.266C265.579 210.626 277.091 208.272 281.879 208.174Z" fill="#008021" stroke="#008021" stroke-width="7" stroke-linejoin="round"/>
<path d="M373.879 208.174C375.99 231.992 349.938 248.649 336.648 254C313.195 254 288.862 208.174 297.95 208.174C305.221 208.174 317.787 215.569 323.162 219.266C323.162 216.347 326.973 179.278 336.648 172.565C344.387 167.194 348.667 201.461 349.84 219.266C357.579 210.626 369.091 208.272 373.879 208.174Z" fill="#008021" stroke="#008021" stroke-width="7" stroke-linejoin="round"/>
<path d="M465.878 208.174C468.015 231.992 441.629 248.649 428.169 254C404.415 254 379.771 208.174 388.975 208.174C396.339 208.174 409.067 215.569 414.51 219.266C414.51 216.347 418.37 179.278 428.169 172.565C436.007 167.194 440.342 201.461 441.53 219.266C449.369 210.626 461.028 208.272 465.878 208.174Z" fill="#008021" stroke="#008021" stroke-width="7" stroke-linejoin="round"/>
<path d="M574.384 163.531C566.375 223.834 543.762 241.266 533.456 242.444C524.917 242.444 505.189 234.788 492.822 163.531C480.455 92.2744 493.705 95.5132 533.456 94.3354C573.207 93.1576 584.396 88.1519 574.384 163.531Z" fill="#FD8E00" stroke="#FD8E00" stroke-width="7" stroke-linejoin="round"/>
<path d="M525.211 143.803C531.546 146.411 535.079 146.322 541.406 143.803" stroke="#FCEAD6" stroke-width="11" stroke-linecap="round" stroke-linejoin="round"/>
<path d="M500.124 172.656C514.166 174.46 522.208 174.077 536.636 172.656" stroke="#FCEAD6" stroke-width="14" stroke-linecap="round" stroke-linejoin="round"/>
<path d="M511.72 216.905C520.655 217.232 525.532 216.961 534.098 216.021" stroke="#FCEAD6" stroke-width="14" stroke-linecap="round" stroke-linejoin="round"/>
<circle cx="551.417" cy="127.901" r="7.06679" fill="#FCEAD6"/>
<circle cx="514.906" cy="127.901" r="7.06679" fill="#FCEAD6"/>
<path d="M574.384 163.531C566.375 223.834 543.762 241.266 533.456 242.444C524.917 242.444 505.189 234.788 492.822 163.531C480.455 92.2744 493.705 95.5132 533.456 94.3354C573.207 93.1576 584.396 88.1519 574.384 163.531Z" stroke="#FD8E00" stroke-width="7" stroke-linejoin="round"/>
<path d="M570.557 62.8284C572.677 86.8555 546.51 103.659 533.162 109.057C509.606 109.057 485.166 62.8284 494.294 62.8284C501.597 62.8284 514.219 70.2878 519.617 74.0175C519.617 71.0732 523.445 33.6778 533.162 26.9055C540.935 21.4876 545.234 56.056 546.412 74.0175C554.185 65.3017 565.747 62.9265 570.557 62.8284Z" fill="#008021" stroke="#008021" stroke-width="7" stroke-linejoin="round"/>
<path d="M608.541 101.694C608.045 102.561 603.339 106.601 602.357 110.821L621.791 125.544C627.876 122.599 639.445 117.105 639.164 116.416C639.074 116.196 640.047 110.233 635.041 110.821C630.036 111.41 635.343 100.143 635.041 98.4543C634.488 95.3567 629.239 96.0773 626.797 98.4549C624.049 98.9456 618.921 98.6878 614.43 97.5709C608.294 96.045 609.101 100.714 608.541 101.694Z" fill="#FCEAD6"/>
<path d="M611.485 125.818C598.537 136.719 591.317 142.259 578.506 151.435C573.206 152.318 564.964 149.263 578.506 140.246C590.989 131.934 600.665 123.232 604.418 119.046C591.786 102.488 596.14 95.8323 601.768 95.4897C606.47 95.2035 610.601 100.986 612.663 105.501C616.491 107.268 618.846 111.39 618.552 116.102C623.557 114.63 620.318 104.029 616.785 104.029C613.958 104.029 611.78 99.3176 611.78 98.4342C611.485 96.6675 613.723 87.304 622.674 86.3617C631.625 85.4195 632.027 95.3587 630.918 96.3734C626.305 100.594 619.639 108.548 624.441 106.701C628.269 105.228 630.428 102.557 630.918 101.085C631.213 100.222 631.743 94.2534 638.574 96.3734C645.405 98.4934 640.181 111.249 638.574 111.39C635.237 111.685 628.563 112.686 628.563 114.335C628.563 115.984 630.133 116.2 630.918 116.102L638.574 114.335C639.752 114.061 642.461 120.4 634.452 125.818C626.443 131.236 616.098 128.468 611.485 125.818Z" fill="#FD8E00"/>
<path d="M458.263 102.073C458.759 102.94 463.465 106.98 464.446 111.2L445.013 125.923C438.927 122.978 427.358 117.484 427.64 116.795C427.73 116.574 426.757 110.612 431.762 111.2C436.768 111.788 431.461 100.521 431.762 98.8332C432.315 95.7356 437.564 96.4562 440.007 98.8338C442.755 99.3245 447.883 99.0667 452.374 97.9498C458.51 96.424 457.702 101.093 458.263 102.073Z" fill="#FCEAD6"/>
<path d="M455.319 126.197C468.267 137.098 475.487 142.637 488.297 151.814C493.598 152.697 501.839 149.642 488.298 140.625C475.815 132.313 466.138 123.611 462.386 119.425C475.018 102.867 470.663 96.2112 465.036 95.8686C460.333 95.5824 456.202 101.365 454.141 105.88C450.313 107.647 447.957 111.769 448.252 116.48C443.246 115.009 446.485 104.408 450.019 104.408C452.846 104.408 455.024 99.6965 455.024 98.8131C455.319 97.0464 453.081 87.6829 444.13 86.7406C435.179 85.7984 434.777 95.7376 435.885 96.7523C440.498 100.973 447.165 108.926 442.363 107.08C438.535 105.607 436.376 102.936 435.885 101.463C435.59 100.601 435.061 94.6323 428.23 96.7523C421.398 98.8723 426.623 111.627 428.23 111.769C431.567 112.064 438.241 113.065 438.241 114.714C438.241 116.363 436.67 116.579 435.885 116.48L428.23 114.714C427.051 114.44 424.343 120.779 432.352 126.197C440.361 131.615 450.706 128.847 455.319 126.197Z" fill="#FD8E00"/>
</g>
<defs>
<filter id="filter0_d_535_233" x="0.9" y="0.735937" width="667.2" height="525.364" filterUnits="userSpaceOnUse" color-interpolation-filters="sRGB">
<feFlood flood-opacity="0" result="BackgroundImageFix"/>
<feColorMatrix in="SourceAlpha" type="matrix" values="0 0 0 0 0 0 0 0 0 0 0 0 0 0 0 0 0 0 127 0" result="hardAlpha"/>
<feOffset dy="4"/>
<feGaussianBlur stdDeviation="13.05"/>
<feComposite in2="hardAlpha" operator="out"/>
<feColorMatrix type="matrix" values="0 0 0 0 1 0 0 0 0 1 0 0 0 0 1 0 0 0 0.1 0"/>
<feBlend mode="normal" in2="BackgroundImageFix" result="effect1_dropShadow_535_233"/>
<feBlend mode="normal" in="SourceGraphic" in2="effect1_dropShadow_535_233" result="shape"/>
</filter>
<clipPath id="clip0_535_233">
<rect x="62" y="224" width="464" height="102" rx="25" fill="white"/>
</clipPath>
</defs>
</svg>
