<svg width="608" height="527" viewBox="0 0 608 527" fill="none" xmlns="http://www.w3.org/2000/svg">
<g filter="url(#filter0_d_558_58)">
<rect x="27" y="140" width="534" height="356" rx="25" fill="white" shape-rendering="crispEdges"/>
<path d="M62 366C62 363.791 63.7909 362 66 362H522C524.209 362 526 363.791 526 366V439C526 452.807 514.807 464 501 464H87C73.1929 464 62 452.807 62 439V366Z" fill="#0084FF"/>
<path d="M62 442H46.5V275.5H62" stroke="#949494" stroke-width="6"/>
<path d="M526 400H541.5V294H526" stroke="#949494" stroke-width="6"/>
<path d="M464.002 409.174C464.041 409.154 465.416 408.627 467.062 408.019C468.96 407.31 470.238 406.946 470.548 407.007C470.819 407.067 471.245 407.331 471.516 407.614C472 408.1 472 408.121 472 415.899L464.738 416L464.699 414.724C464.699 414.035 464.661 413.245 464.641 412.962C464.602 412.678 464.448 411.726 464.273 410.835C464.099 409.944 463.983 409.194 464.002 409.174Z" fill="#EEEDEB"/>
<path d="M437 414.693L441.608 410.04C444.137 407.465 446.274 405.366 446.353 405.366C446.451 405.366 446.863 405.782 447.314 406.317C447.745 406.832 448.451 407.96 448.882 408.832C449.314 409.703 449.784 411.05 449.941 411.802C450.098 412.574 450.235 413.901 450.235 414.772C450.235 415.743 450.078 416.97 449.843 417.941C449.608 418.812 449.157 420.059 448.843 420.713C448.51 421.366 447.863 422.376 447.431 422.95C446.98 423.525 446.49 424 446.353 423.98C446.235 423.98 446.059 423.881 445.961 423.762C445.882 423.644 445.961 423.446 446.118 423.347C446.353 423.208 446.333 423.188 446.02 423.267C445.706 423.366 444.745 422.495 437 414.693Z" fill="#E3E3D8"/>
<path d="M433.373 392.099C434.392 391.762 436.02 391.366 437 391.228C438.078 391.05 439.784 390.97 441.412 391.01C443.118 391.069 444.647 391.228 445.725 391.485C446.647 391.683 447.961 392.059 448.667 392.297C449.373 392.555 450.686 393.129 451.608 393.584C452.529 394.059 453.843 394.852 454.549 395.386C455.255 395.901 456.294 396.733 456.882 397.228C457.471 397.723 458.608 398.99 459.431 400.02C460.255 401.05 461.392 402.792 461.941 403.881C462.49 404.97 463.216 406.654 463.549 407.644C463.863 408.634 464.275 410.277 464.431 411.307C464.608 412.337 464.745 413.663 464.745 415.267H450.235V414.218C450.235 413.663 450.098 412.574 449.941 411.802C449.784 411.03 449.314 409.703 448.882 408.832C448.471 407.96 447.725 406.792 446.353 405.267L441.667 409.96C437.471 414.178 437.039 414.693 437.294 414.97C437.569 415.248 436.843 415.287 421.51 415.267L417 410.733L417.373 409.287C417.569 408.495 418.059 407.05 418.451 406.059C418.843 405.069 419.529 403.663 419.98 402.891C420.412 402.119 421.333 400.792 422.02 399.941C422.706 399.069 423.824 397.861 424.51 397.267C425.196 396.654 426.392 395.703 427.176 395.168C427.941 394.614 429.235 393.842 430.039 393.446C430.843 393.05 432.353 392.436 433.373 392.099Z" fill="#F46813"/>
<path d="M464.451 419.05C464.627 418.119 464.745 416.891 464.745 416.317V415.287H472V419.188C472 422.97 471.98 423.109 471.549 423.545C471.274 423.842 470.882 424 470.49 424C470.137 424 468.51 423.525 463.941 421.921L464.059 421.327C464.118 420.99 464.294 419.96 464.451 419.05Z" fill="#A8D3F6"/>
<path d="M424.392 404.574C424.667 404.238 425.176 403.901 425.549 403.822C425.922 403.723 426.569 403.723 427.02 403.802C427.51 403.901 428.02 404.198 428.392 404.574C428.902 405.109 428.98 405.307 428.98 406.356C428.98 407.386 428.902 407.584 428.392 408.139C428.059 408.475 427.49 408.832 427.118 408.951C426.627 409.109 426.235 409.109 425.745 408.97C425.373 408.852 424.804 408.475 424.471 408.139C423.961 407.584 423.882 407.386 423.882 406.356C423.882 405.406 423.98 405.089 424.392 404.574Z" fill="#201D30"/>
<path d="M439.115 389.106C439.588 387.979 440.1 386.812 440.238 386.496C440.376 386.199 440.514 385.981 440.534 386.001C440.553 386.041 441.027 387.089 441.559 388.335C442.091 389.581 442.584 390.788 442.643 391.005C442.761 391.381 442.682 391.401 440.514 391.401C439.272 391.401 438.247 391.341 438.247 391.282C438.247 391.223 438.622 390.234 439.115 389.106Z" fill="#E22512"/>
<path d="M425.909 392.33C425.751 391.124 425.652 390.076 425.712 390.036C425.771 389.996 426.835 390.728 428.096 391.658C429.338 392.607 430.343 393.418 430.343 393.477C430.343 393.537 430.028 393.735 429.614 393.913C429.22 394.091 428.333 394.605 426.421 395.851L426.323 395.218C426.263 394.862 426.086 393.557 425.909 392.33Z" fill="#E22512"/>
<path d="M450.704 393.418C450.744 393.339 451.729 392.528 452.912 391.618C454.095 390.708 455.119 389.996 455.179 390.016C455.238 390.056 455.139 391.262 454.962 392.726C454.765 394.17 454.607 395.475 454.607 395.614C454.607 395.752 454.134 395.534 453.464 395.119C452.853 394.704 451.946 394.189 451.493 393.972C451.02 393.754 450.685 393.497 450.704 393.418Z" fill="#E22512"/>
<path d="M416.763 403.327C415.837 402.121 415.048 401.053 415.009 400.954C414.969 400.875 415.068 400.795 415.206 400.795C415.364 400.795 416.645 400.934 418.044 401.112C419.463 401.29 420.646 401.468 420.705 401.507C420.764 401.547 420.705 401.685 420.567 401.824C420.449 401.962 419.917 402.852 418.438 405.522L416.763 403.327Z" fill="#E22512"/>
<path d="M460.343 401.725C460.126 401.547 460.599 401.409 462.511 401.171C463.851 400.993 465.192 400.835 465.507 400.815C465.96 400.795 466.019 400.855 465.842 401.151C465.743 401.329 464.955 402.397 462.491 405.542L461.565 403.742C461.033 402.753 460.5 401.844 460.343 401.725Z" fill="#E22512"/>
<path d="M416.862 420.772C416.743 420.099 416.783 420.02 418.971 417.864L421.198 415.629H437.36L441.697 419.98C444.082 422.374 446.132 424.332 446.23 424.332C446.348 424.351 446.802 423.877 447.255 423.303C447.689 422.73 448.339 421.721 448.674 421.068C448.99 420.416 449.443 419.17 449.679 418.299C449.896 417.429 450.074 416.48 450.074 415.629H464.758L464.62 417.449C464.521 418.457 464.285 420.04 464.088 420.969C463.891 421.899 463.457 423.323 462.531 425.617L464.285 427.951C465.251 429.217 466.019 430.305 466 430.364C465.96 430.423 464.659 430.305 460.224 429.711L459.85 430.245C459.633 430.522 458.608 431.61 457.583 432.658C456.539 433.687 455.455 434.735 454.607 435.408L454.962 438.275C455.139 439.858 455.238 441.143 455.159 441.143C455.06 441.143 453.976 440.392 450.468 437.781L449.246 438.256C448.556 438.513 447.294 438.908 446.427 439.126C445.56 439.343 444.417 439.581 442.879 439.759L441.776 442.389C441.164 443.813 440.573 445 440.494 445C440.396 444.98 439.824 443.813 438.149 439.818L436.276 439.482C435.251 439.304 433.655 438.888 432.728 438.552C431.802 438.236 430.915 437.919 430.757 437.86C430.58 437.801 429.535 438.453 428.195 439.462C426.953 440.392 425.869 441.143 425.79 441.143C425.692 441.143 425.672 440.906 425.731 440.609C425.771 440.293 425.909 439.304 426.027 438.374C426.145 437.445 426.263 436.396 426.323 436.06C426.421 435.447 426.323 435.328 424.825 434.082C423.957 433.331 422.676 432.065 420.745 429.771L418.005 430.107C416.507 430.285 415.226 430.404 415.147 430.344C415.048 430.305 415.738 429.237 418.34 425.716L417.67 423.6C417.295 422.413 416.94 421.147 416.862 420.772Z" fill="#E22512"/>
<path d="M142.421 416.03C140.826 416.091 138.187 416.137 136.545 416.11C134.908 416.1 133.466 416.1 133.324 416.124C133.144 416.16 133.383 417.2 135.548 424.706L136.486 424.432C136.995 424.284 137.941 423.891 138.605 423.546C139.273 423.217 140.377 422.492 141.089 421.949C141.796 421.39 142.815 420.37 143.385 419.633C143.94 418.916 144.62 417.827 144.891 417.227C145.142 416.633 145.344 416.086 145.326 416.024C145.303 415.947 143.991 415.959 142.421 416.03Z" fill="#E3E3D8"/>
<path d="M160.366 414.116C158.708 414.397 157.006 414.674 156.612 414.705C156.222 414.751 155.817 414.818 155.705 414.868C155.616 414.927 155.289 415.409 155.02 415.942C154.731 416.48 154.444 417.387 154.377 417.961C154.305 418.587 154.377 419.709 154.934 422.422L157.046 421.807C158.65 421.34 159.39 421.04 160.277 420.513C160.888 420.133 161.688 419.53 162.051 419.173C162.413 418.815 163.003 418.072 163.351 417.516C163.718 416.956 164.106 416.103 164.214 415.601C164.327 415.114 164.401 414.42 164.369 414.093C164.314 413.537 164.256 413.487 163.867 413.533C163.625 413.558 162.332 413.779 160.848 414.033L160.366 414.116Z" fill="#E3E3D8"/>
<path d="M203.43 390.479C203.766 389.591 204.017 388.778 203.99 388.685C203.945 388.53 201.388 389.224 179.775 395.518L176.289 400.451C174.358 403.148 172.75 405.348 172.697 405.313C172.664 405.272 172.165 405.014 171.589 404.711C171.017 404.424 170.095 403.734 169.518 403.213C168.942 402.691 168.247 401.835 167.967 401.311C167.687 400.787 167.328 400.135 166.869 399.361L112.904 415.077L113.658 417.884C114.318 420.297 114.493 420.751 114.922 421.13C115.256 421.403 115.66 421.554 116.059 421.539C116.58 421.505 117.367 421.074 121.179 418.719C123.638 417.18 125.708 415.837 125.759 415.721C125.806 415.59 126.545 415.577 127.878 415.71C128.993 415.822 130.578 415.949 131.422 416.005C132.242 416.052 134.423 416.107 136.229 416.118C138.041 416.146 140.889 416.089 142.567 416.021C144.24 415.937 147.091 415.746 148.911 415.585C150.732 415.425 153.406 415.134 154.882 414.956C156.333 414.769 159.078 414.356 160.975 414.022C162.853 413.694 165.389 413.224 166.605 412.954C167.806 412.705 170.126 412.147 171.763 411.721C173.404 411.31 176.407 410.402 178.493 409.694C180.554 408.976 183.14 408.021 184.239 407.567C185.337 407.112 187.025 406.352 187.988 405.869C188.956 405.403 190.569 404.53 191.563 403.937C192.558 403.345 194.032 402.361 194.852 401.752C195.668 401.128 196.895 400.098 197.575 399.446C198.256 398.794 199.372 397.528 200.048 396.642C200.723 395.756 201.614 394.37 202.055 393.552C202.476 392.74 203.094 391.367 203.43 390.479Z" fill="#FF8A16"/>
<path d="M176.601 383.162C175.713 383.32 174.088 383.642 172.99 383.878C171.892 384.113 168.636 385.028 165.73 385.908C162.59 386.856 159.477 387.897 157.992 388.481C156.644 389.025 154.673 389.834 153.634 390.271C152.594 390.708 150.862 391.465 149.777 391.966C148.693 392.467 146.64 393.434 145.215 394.152C143.786 394.854 141.594 395.997 140.33 396.684C139.066 397.372 137.029 398.536 135.783 399.286C134.533 400.02 132.311 401.424 130.851 402.387C129.377 403.371 127.16 404.941 125.93 405.888C124.645 406.867 123.579 407.581 123.444 407.553C123.324 407.504 120.924 407.497 118.13 407.52C115.336 407.544 112.852 407.612 112.598 407.686C112.363 407.754 112.009 407.924 111.821 408.08C111.629 408.22 111.397 408.59 111.317 408.899C111.186 409.324 111.34 410.069 112.784 415.028L166.967 399.333L166.833 398.363C166.743 397.835 166.703 396.972 166.725 396.461C166.746 395.951 166.902 395.031 167.066 394.429C167.25 393.82 167.626 392.853 167.925 392.279C168.21 391.725 168.571 391.217 168.708 391.177C168.845 391.137 171.393 392.092 179.775 395.518L204.127 388.427L202.875 387.48C202.196 386.971 201.086 386.219 200.435 385.803C199.783 385.388 198.318 384.655 197.182 384.179C196.041 383.687 194.242 383.118 193.178 382.89C192.114 382.662 190.619 382.408 189.834 382.334C189.048 382.261 187.796 382.188 187.034 382.192C186.266 382.18 184.896 382.209 183.976 382.258C183.053 382.292 181.382 382.459 180.257 382.602C179.136 382.76 177.489 383.004 176.601 383.162Z" fill="#F4DF24"/>
<path d="M177.08 379.341C176.527 379.267 175.747 379.208 175.343 379.208C174.814 379.211 172.59 379.808 167.324 381.325C163.314 382.493 160.037 383.481 160.051 383.527C160.064 383.574 160.797 384.268 163.263 386.542L167.125 385.451C169.257 384.83 171.222 384.291 171.5 384.227C171.779 384.163 172.755 383.946 173.693 383.74C174.63 383.534 175.972 383.261 176.699 383.134C177.43 383.022 178.814 382.82 179.794 382.686C180.778 382.568 181.622 382.406 181.658 382.311C181.698 382.232 181.262 381.754 180.69 381.248C180.123 380.758 179.287 380.144 178.859 379.915C178.432 379.687 177.636 379.431 177.08 379.341Z" fill="#F46813"/>
<path d="M153.537 386.298C153.17 386.203 152.39 386.145 151.797 386.149C150.868 386.168 149.901 386.416 143.461 388.274C139.452 389.442 136.175 390.43 136.188 390.477C136.202 390.523 137.506 391.723 139.092 393.161C141.425 395.272 142.027 395.736 142.303 395.588C142.47 395.506 143.786 394.854 145.215 394.152C146.64 393.434 148.918 392.367 150.248 391.761C151.578 391.155 153.707 390.233 154.958 389.717C156.208 389.202 157.258 388.728 157.308 388.68C157.353 388.616 157.04 388.27 156.611 387.891C156.163 387.517 155.45 387.036 155.027 386.823C154.585 386.615 153.9 386.377 153.537 386.298Z" fill="#F46813"/>
<path d="M179.775 395.518L174.359 393.313C171.374 392.098 168.845 391.137 168.708 391.177C168.571 391.217 168.21 391.725 167.925 392.279C167.626 392.853 167.25 393.82 167.066 394.429C166.902 395.031 166.725 396.024 166.711 396.633C166.666 397.353 166.815 398.301 167.104 399.293C167.398 400.232 167.805 401.19 168.167 401.707C168.521 402.192 169.184 402.94 169.67 403.37C170.18 403.81 171.036 404.418 171.617 404.736C172.198 405.055 172.693 405.297 172.752 405.28C172.815 405.279 174.423 403.079 179.775 395.518Z" fill="#F46813"/>
<path d="M194.875 386.531C194.663 386.24 194.174 385.946 193.754 385.816L193.735 385.821C193.228 385.683 192.742 385.69 192.155 385.861C191.705 385.992 191.091 386.289 190.814 386.504C190.488 386.767 190.231 387.195 190.107 387.718C189.942 388.389 189.99 388.627 190.295 389.092C190.521 389.43 190.951 389.742 191.371 389.872C191.747 389.998 192.319 390.067 192.626 390.028C192.957 389.998 193.485 389.845 193.799 389.686C194.138 389.537 194.613 389.129 194.869 388.769C195.105 388.415 195.311 387.884 195.289 387.588C195.271 387.307 195.087 386.823 194.875 386.531Z" fill="#201D30"/>
<path d="M216.969 448.264C217.51 454.364 210.83 458.63 207.422 460C201.409 460 195.17 448.264 197.5 448.264C199.364 448.264 202.587 450.158 203.965 451.105C203.965 450.357 204.942 440.864 207.422 439.145C209.407 437.769 210.504 446.545 210.805 451.105C212.79 448.892 215.741 448.289 216.969 448.264Z" fill="#008021" stroke="#008021" stroke-width="7" stroke-linejoin="round"/>
<path d="M162.969 448.264C163.51 454.364 156.83 458.63 153.422 460C147.409 460 141.17 448.264 143.5 448.264C145.364 448.264 148.587 450.158 149.965 451.105C149.965 450.357 150.942 440.864 153.422 439.145C155.407 437.769 156.504 446.545 156.805 451.105C158.79 448.892 161.741 448.289 162.969 448.264Z" fill="#008021" stroke="#008021" stroke-width="7" stroke-linejoin="round"/>
<path d="M396.969 448.264C397.51 454.364 390.83 458.63 387.422 460C381.409 460 375.17 448.264 377.5 448.264C379.364 448.264 382.587 450.158 383.965 451.105C383.965 450.357 384.942 440.864 387.422 439.145C389.407 437.769 390.504 446.545 390.805 451.105C392.79 448.892 395.741 448.289 396.969 448.264Z" fill="#008021" stroke="#008021" stroke-width="7" stroke-linejoin="round"/>
<ellipse cx="393" cy="390.5" rx="9" ry="8.5" fill="white"/>
<circle cx="406" cy="404" r="4" fill="white"/>
<rect x="62" y="224" width="464" height="102" rx="25" fill="#DBAB4A"/>
<path d="M454.5 279.348C454.5 279.348 445 263.501 427.5 263.5M445 286.5C445 286.5 437.5 279 427.5 279.348C417 279.348 411 286.5 411 286.5" stroke="#CE8832" stroke-width="4" stroke-linecap="round"/>
<path d="M361.5 279.348C361.5 279.348 352 263.501 334.5 263.5M352 286.5C352 286.5 344.5 279 334.5 279.348C324 279.348 318 286.5 318 286.5" stroke="#CE8832" stroke-width="4" stroke-linecap="round"/>
<path d="M268.5 278.348C268.5 278.348 259 262.501 241.5 262.5M259 285.5C259 285.5 251.5 278 241.5 278.348C231 278.348 225 285.5 225 285.5" stroke="#CE8832" stroke-width="4" stroke-linecap="round"/>
<path d="M175.5 277.348C175.5 277.348 166 261.501 148.5 261.5M166 284.5C166 284.5 158.5 277 148.5 277.348C138 277.348 132 284.5 132 284.5" stroke="#CE8832" stroke-width="4" stroke-linecap="round"/>
<path d="M427.497 316L427.498 268.5L427.497 247" stroke="#CE8832" stroke-width="4" stroke-linecap="round"/>
<path d="M334.497 316L334.498 268.5L334.497 247" stroke="#CE8832" stroke-width="4" stroke-linecap="round"/>
<path d="M241.497 315L241.498 267.5L241.497 246" stroke="#CE8832" stroke-width="4" stroke-linecap="round"/>
<path d="M148.497 314L148.498 266.5L148.497 245" stroke="#CE8832" stroke-width="4" stroke-linecap="round"/>
<path d="M402 281C406.062 271.026 414 263.5 427.5 263.5" stroke="#CE8832" stroke-width="4" stroke-linecap="round"/>
<path d="M309 281C313.062 271.026 321 263.5 334.5 263.5" stroke="#CE8832" stroke-width="4" stroke-linecap="round"/>
<path d="M216 280C220.062 270.026 228 262.5 241.5 262.5" stroke="#CE8832" stroke-width="4" stroke-linecap="round"/>
<path d="M123 279C127.062 269.026 135 261.5 148.5 261.5" stroke="#CE8832" stroke-width="4" stroke-linecap="round"/>
<path d="M415 300C415 300 421.5 294 427.5 294C433.5 294 440 300 440 300" stroke="#CE8832" stroke-width="3" stroke-linecap="round"/>
<path d="M322 300C322 300 328.5 294 334.5 294C340.5 294 347 300 347 300" stroke="#CE8832" stroke-width="3" stroke-linecap="round"/>
<path d="M229 299C229 299 235.5 293 241.5 293C247.5 293 254 299 254 299" stroke="#CE8832" stroke-width="3" stroke-linecap="round"/>
<path d="M136 298C136 298 142.5 292 148.5 292C154.5 292 161 298 161 298" stroke="#CE8832" stroke-width="3" stroke-linecap="round"/>
<path d="M186.878 208.174C189.015 231.992 162.629 248.649 149.169 254C125.415 254 100.771 208.174 109.975 208.174C117.339 208.174 130.067 215.569 135.51 219.266C135.51 216.347 139.37 179.278 149.169 172.565C157.007 167.194 161.342 201.461 162.53 219.266C170.369 210.626 182.028 208.272 186.878 208.174Z" fill="#008021" stroke="#008021" stroke-width="7" stroke-linejoin="round"/>
<path d="M279.879 208.174C281.99 231.992 255.938 248.649 242.648 254C219.195 254 194.862 208.174 203.95 208.174C211.221 208.174 223.787 215.569 229.162 219.266C229.162 216.347 232.973 179.278 242.648 172.565C250.387 167.194 254.667 201.461 255.84 219.266C263.579 210.626 275.091 208.272 279.879 208.174Z" fill="#008021" stroke="#008021" stroke-width="7" stroke-linejoin="round"/>
<path d="M372.879 208.174C374.99 231.992 348.938 248.649 335.648 254C312.195 254 287.862 208.174 296.95 208.174C304.221 208.174 316.787 215.569 322.162 219.266C322.162 216.347 325.973 179.278 335.648 172.565C343.387 167.194 347.667 201.461 348.84 219.266C356.579 210.626 368.091 208.272 372.879 208.174Z" fill="#008021" stroke="#008021" stroke-width="7" stroke-linejoin="round"/>
<path d="M466.878 208.174C469.015 231.992 442.629 248.649 429.169 254C405.415 254 380.771 208.174 389.975 208.174C397.339 208.174 410.067 215.569 415.51 219.266C415.51 216.347 419.37 179.278 429.169 172.565C437.007 167.194 441.342 201.461 442.53 219.266C450.369 210.626 462.028 208.272 466.878 208.174Z" fill="#008021" stroke="#008021" stroke-width="7" stroke-linejoin="round"/>
<path d="M574.384 163.53C566.375 223.833 543.762 241.265 533.456 242.443C524.917 242.443 505.189 234.787 492.822 163.53C480.455 92.2735 493.705 95.5122 533.456 94.3344C573.207 93.1566 584.396 88.1509 574.384 163.53Z" fill="#FD8E00" stroke="#FD8E00" stroke-width="7" stroke-linejoin="round"/>
<path d="M500.124 172.656C514.166 174.46 522.208 174.077 536.636 172.656" stroke="#FCEAD6" stroke-width="14" stroke-linecap="round" stroke-linejoin="round"/>
<path d="M511.721 216.904C520.655 217.231 525.533 216.96 534.099 216.021" stroke="#FCEAD6" stroke-width="14" stroke-linecap="round" stroke-linejoin="round"/>
<path d="M574.384 163.53C566.375 223.833 543.762 241.265 533.456 242.443C524.917 242.443 505.189 234.787 492.822 163.53C480.455 92.2735 493.705 95.5122 533.456 94.3344C573.207 93.1566 584.396 88.1509 574.384 163.53Z" stroke="#FD8E00" stroke-width="7" stroke-linejoin="round"/>
<path d="M570.556 62.8274C572.676 86.8545 546.509 103.658 533.161 109.056C509.605 109.056 485.166 62.8274 494.294 62.8274C501.596 62.8274 514.218 70.2868 519.616 74.0165C519.616 71.0722 523.444 33.6769 533.161 26.9045C540.935 21.4866 545.234 56.055 546.411 74.0165C554.185 65.3008 565.747 62.9255 570.556 62.8274Z" fill="#008021" stroke="#008021" stroke-width="7" stroke-linejoin="round"/>
</g>
<defs>
<filter id="filter0_d_558_58" x="0.9" y="0.734961" width="606.539" height="525.365" filterUnits="userSpaceOnUse" color-interpolation-filters="sRGB">
<feFlood flood-opacity="0" result="BackgroundImageFix"/>
<feColorMatrix in="SourceAlpha" type="matrix" values="0 0 0 0 0 0 0 0 0 0 0 0 0 0 0 0 0 0 127 0" result="hardAlpha"/>
<feOffset dy="4"/>
<feGaussianBlur stdDeviation="13.05"/>
<feComposite in2="hardAlpha" operator="out"/>
<feColorMatrix type="matrix" values="0 0 0 0 1 0 0 0 0 1 0 0 0 0 1 0 0 0 0.1 0"/>
<feBlend mode="normal" in2="BackgroundImageFix" result="effect1_dropShadow_558_58"/>
<feBlend mode="normal" in="SourceGraphic" in2="effect1_dropShadow_558_58" result="shape"/>
</filter>
</defs>
</svg>
