<svg width="148" height="40" viewBox="0 0 148 31" fill="none" xmlns="http://www.w3.org/2000/svg">
<path d="M0.775 24.5L8.575 7H12.575L20.4 24.5H16.15L9.75 9.05H11.35L4.925 24.5H0.775ZM4.675 20.75L5.75 17.675H14.75L15.85 20.75H4.675ZM27.5436 24.7C26.2769 24.7 25.1352 24.4167 24.1186 23.85C23.1019 23.2833 22.2936 22.4833 21.6936 21.45C21.1102 20.4167 20.8186 19.1917 20.8186 17.775C20.8186 16.375 21.1102 15.1583 21.6936 14.125C22.2936 13.0917 23.1019 12.2917 24.1186 11.725C25.1352 11.1417 26.2769 10.85 27.5436 10.85C28.7269 10.85 29.7352 11.1 30.5686 11.6C31.4186 12.1 32.0686 12.8583 32.5186 13.875C32.9686 14.8917 33.1936 16.1917 33.1936 17.775C33.1936 19.3417 32.9602 20.6417 32.4936 21.675C32.0269 22.6917 31.3686 23.45 30.5186 23.95C29.6686 24.45 28.6769 24.7 27.5436 24.7ZM28.2186 21.5C28.8519 21.5 29.4269 21.35 29.9436 21.05C30.4602 20.75 30.8686 20.325 31.1686 19.775C31.4852 19.2083 31.6436 18.5417 31.6436 17.775C31.6436 16.9917 31.4852 16.325 31.1686 15.775C30.8686 15.225 30.4602 14.8 29.9436 14.5C29.4269 14.2 28.8519 14.05 28.2186 14.05C27.5686 14.05 26.9852 14.2 26.4686 14.5C25.9519 14.8 25.5352 15.225 25.2186 15.775C24.9186 16.325 24.7686 16.9917 24.7686 17.775C24.7686 18.5417 24.9186 19.2083 25.2186 19.775C25.5352 20.325 25.9519 20.75 26.4686 21.05C26.9852 21.35 27.5686 21.5 28.2186 21.5ZM31.5686 29.35V21.775L31.8186 17.8L31.7436 13.8V11.05H35.4686V29.35H31.5686ZM44.7543 24.7C43.6376 24.7 42.6376 24.4833 41.7543 24.05C40.8876 23.6167 40.2126 22.9583 39.7293 22.075C39.246 21.175 39.0043 20.0333 39.0043 18.65V11.05H42.9043V18.075C42.9043 19.1917 43.1376 20.0167 43.6043 20.55C44.0876 21.0667 44.7626 21.325 45.6293 21.325C46.2293 21.325 46.7626 21.2 47.2293 20.95C47.696 20.6833 48.0626 20.2833 48.3293 19.75C48.596 19.2 48.7293 18.5167 48.7293 17.7V11.05H52.6293V24.5H48.9293V20.8L49.6043 21.875C49.1543 22.8083 48.4876 23.5167 47.6043 24C46.7376 24.4667 45.7876 24.7 44.7543 24.7ZM64.4924 24.5V21.875L64.2424 21.3V16.6C64.2424 15.7667 63.9841 15.1167 63.4674 14.65C62.9674 14.1833 62.1924 13.95 61.1424 13.95C60.4257 13.95 59.7174 14.0667 59.0174 14.3C58.334 14.5167 57.7507 14.8167 57.2674 15.2L55.8674 12.475C56.6007 11.9583 57.484 11.5583 58.5174 11.275C59.5507 10.9917 60.6007 10.85 61.6674 10.85C63.7174 10.85 65.3091 11.3333 66.4424 12.3C67.5757 13.2667 68.1424 14.775 68.1424 16.825V24.5H64.4924ZM60.3924 24.7C59.3424 24.7 58.4424 24.525 57.6924 24.175C56.9424 23.8083 56.3674 23.3167 55.9674 22.7C55.5674 22.0833 55.3674 21.3917 55.3674 20.625C55.3674 19.825 55.559 19.125 55.9424 18.525C56.3424 17.925 56.9674 17.4583 57.8174 17.125C58.6674 16.775 59.7757 16.6 61.1424 16.6H64.7174V18.875H61.5674C60.6507 18.875 60.0174 19.025 59.6674 19.325C59.334 19.625 59.1674 20 59.1674 20.45C59.1674 20.95 59.359 21.35 59.7424 21.65C60.1424 21.9333 60.684 22.075 61.3674 22.075C62.0174 22.075 62.6007 21.925 63.1174 21.625C63.634 21.3083 64.009 20.85 64.2424 20.25L64.8424 22.05C64.559 22.9167 64.0424 23.575 63.2924 24.025C62.5424 24.475 61.5757 24.7 60.3924 24.7ZM77.6971 24.8C76.2971 24.8 74.9554 24.6167 73.6721 24.25C72.3887 23.8667 71.3554 23.375 70.5721 22.775L71.9471 19.725C72.6971 20.2583 73.5804 20.7 74.5971 21.05C75.6304 21.3833 76.6721 21.55 77.7221 21.55C78.5221 21.55 79.1637 21.475 79.6471 21.325C80.1471 21.1583 80.5137 20.9333 80.7471 20.65C80.9804 20.3667 81.0971 20.0417 81.0971 19.675C81.0971 19.2083 80.9137 18.8417 80.5471 18.575C80.1804 18.2917 79.6971 18.0667 79.0971 17.9C78.4971 17.7167 77.8304 17.55 77.0971 17.4C76.3804 17.2333 75.6554 17.0333 74.9221 16.8C74.2054 16.5667 73.5471 16.2667 72.9471 15.9C72.3471 15.5333 71.8554 15.05 71.4721 14.45C71.1054 13.85 70.9221 13.0833 70.9221 12.15C70.9221 11.15 71.1887 10.2417 71.7221 9.425C72.2721 8.59167 73.0887 7.93333 74.1721 7.45C75.2721 6.95 76.6471 6.7 78.2971 6.7C79.3971 6.7 80.4804 6.83333 81.5471 7.1C82.6137 7.35 83.5554 7.73333 84.3721 8.25L83.1221 11.325C82.3054 10.8583 81.4887 10.5167 80.6721 10.3C79.8554 10.0667 79.0554 9.95 78.2721 9.95C77.4887 9.95 76.8471 10.0417 76.3471 10.225C75.8471 10.4083 75.4887 10.65 75.2721 10.95C75.0554 11.2333 74.9471 11.5667 74.9471 11.95C74.9471 12.4 75.1304 12.7667 75.4971 13.05C75.8637 13.3167 76.3471 13.5333 76.9471 13.7C77.5471 13.8667 78.2054 14.0333 78.9221 14.2C79.6554 14.3667 80.3804 14.5583 81.0971 14.775C81.8304 14.9917 82.4971 15.2833 83.0971 15.65C83.6971 16.0167 84.1804 16.5 84.5471 17.1C84.9304 17.7 85.1221 18.4583 85.1221 19.375C85.1221 20.3583 84.8471 21.2583 84.2971 22.075C83.7471 22.8917 82.9221 23.55 81.8221 24.05C80.7387 24.55 79.3637 24.8 77.6971 24.8ZM94.2895 24.7C92.7561 24.7 91.4061 24.4 90.2395 23.8C89.0895 23.2 88.1978 22.3833 87.5645 21.35C86.9311 20.3 86.6145 19.1083 86.6145 17.775C86.6145 16.425 86.9228 15.2333 87.5395 14.2C88.1728 13.15 89.0311 12.3333 90.1145 11.75C91.1978 11.15 92.4228 10.85 93.7895 10.85C95.1061 10.85 96.2895 11.1333 97.3395 11.7C98.4061 12.25 99.2478 13.05 99.8645 14.1C100.481 15.1333 100.789 16.375 100.789 17.825C100.789 17.975 100.781 18.15 100.764 18.35C100.748 18.5333 100.731 18.7083 100.714 18.875H89.7895V16.6H98.6645L97.1645 17.275C97.1645 16.575 97.0228 15.9667 96.7395 15.45C96.4561 14.9333 96.0645 14.5333 95.5645 14.25C95.0645 13.95 94.4811 13.8 93.8145 13.8C93.1478 13.8 92.5561 13.95 92.0395 14.25C91.5395 14.5333 91.1478 14.9417 90.8645 15.475C90.5811 15.9917 90.4395 16.6083 90.4395 17.325V17.925C90.4395 18.6583 90.5978 19.3083 90.9145 19.875C91.2478 20.425 91.7061 20.85 92.2895 21.15C92.8895 21.4333 93.5895 21.575 94.3895 21.575C95.1061 21.575 95.7311 21.4667 96.2645 21.25C96.8145 21.0333 97.3145 20.7083 97.7645 20.275L99.8395 22.525C99.2228 23.225 98.4478 23.7667 97.5145 24.15C96.5811 24.5167 95.5061 24.7 94.2895 24.7ZM111.561 10.85C112.628 10.85 113.578 11.0667 114.411 11.5C115.261 11.9167 115.928 12.5667 116.411 13.45C116.894 14.3167 117.136 15.4333 117.136 16.8V24.5H113.236V17.4C113.236 16.3167 112.994 15.5167 112.511 15C112.044 14.4833 111.378 14.225 110.511 14.225C109.894 14.225 109.336 14.3583 108.836 14.625C108.353 14.875 107.969 15.2667 107.686 15.8C107.419 16.3333 107.286 17.0167 107.286 17.85V24.5H103.386V11.05H107.111V14.775L106.411 13.65C106.894 12.75 107.586 12.0583 108.486 11.575C109.386 11.0917 110.411 10.85 111.561 10.85ZM125.196 24.7C124.046 24.7 122.938 24.5667 121.871 24.3C120.821 24.0167 119.988 23.6667 119.371 23.25L120.671 20.45C121.288 20.8333 122.013 21.15 122.846 21.4C123.696 21.6333 124.529 21.75 125.346 21.75C126.246 21.75 126.879 21.6417 127.246 21.425C127.629 21.2083 127.821 20.9083 127.821 20.525C127.821 20.2083 127.671 19.975 127.371 19.825C127.088 19.6583 126.704 19.5333 126.221 19.45C125.738 19.3667 125.204 19.2833 124.621 19.2C124.054 19.1167 123.479 19.0083 122.896 18.875C122.313 18.725 121.779 18.5083 121.296 18.225C120.813 17.9417 120.421 17.5583 120.121 17.075C119.838 16.5917 119.696 15.9667 119.696 15.2C119.696 14.35 119.938 13.6 120.421 12.95C120.921 12.3 121.638 11.7917 122.571 11.425C123.504 11.0417 124.621 10.85 125.921 10.85C126.838 10.85 127.771 10.95 128.721 11.15C129.671 11.35 130.463 11.6417 131.096 12.025L129.796 14.8C129.146 14.4167 128.488 14.1583 127.821 14.025C127.171 13.875 126.538 13.8 125.921 13.8C125.054 13.8 124.421 13.9167 124.021 14.15C123.621 14.3833 123.421 14.6833 123.421 15.05C123.421 15.3833 123.563 15.6333 123.846 15.8C124.146 15.9667 124.538 16.1 125.021 16.2C125.504 16.3 126.029 16.3917 126.596 16.475C127.179 16.5417 127.763 16.65 128.346 16.8C128.929 16.95 129.454 17.1667 129.921 17.45C130.404 17.7167 130.796 18.0917 131.096 18.575C131.396 19.0417 131.546 19.6583 131.546 20.425C131.546 21.2583 131.296 22 130.796 22.65C130.296 23.2833 129.571 23.7833 128.621 24.15C127.688 24.5167 126.546 24.7 125.196 24.7ZM140.627 24.7C139.094 24.7 137.744 24.4 136.577 23.8C135.427 23.2 134.536 22.3833 133.902 21.35C133.269 20.3 132.952 19.1083 132.952 17.775C132.952 16.425 133.261 15.2333 133.877 14.2C134.511 13.15 135.369 12.3333 136.452 11.75C137.536 11.15 138.761 10.85 140.127 10.85C141.444 10.85 142.627 11.1333 143.677 11.7C144.744 12.25 145.586 13.05 146.202 14.1C146.819 15.1333 147.127 16.375 147.127 17.825C147.127 17.975 147.119 18.15 147.102 18.35C147.086 18.5333 147.069 18.7083 147.052 18.875H136.127V16.6H145.002L143.502 17.275C143.502 16.575 143.361 15.9667 143.077 15.45C142.794 14.9333 142.402 14.5333 141.902 14.25C141.402 13.95 140.819 13.8 140.152 13.8C139.486 13.8 138.894 13.95 138.377 14.25C137.877 14.5333 137.486 14.9417 137.202 15.475C136.919 15.9917 136.777 16.6083 136.777 17.325V17.925C136.777 18.6583 136.936 19.3083 137.252 19.875C137.586 20.425 138.044 20.85 138.627 21.15C139.227 21.4333 139.927 21.575 140.727 21.575C141.444 21.575 142.069 21.4667 142.602 21.25C143.152 21.0333 143.652 20.7083 144.102 20.275L146.177 22.525C145.561 23.225 144.786 23.7667 143.852 24.15C142.919 24.5167 141.844 24.7 140.627 24.7Z" fill="#0084FF"/>
</svg>
