<svg width="300" height="301" viewBox="0 0 300 301" fill="none" xmlns="http://www.w3.org/2000/svg">
<ellipse cx="150.876" cy="153.536" rx="114.035" ry="113.372" stroke="#0184FF" stroke-width="23"/>
<ellipse cx="150.001" cy="34.9305" rx="34.2105" ry="34.8837" fill="#0184FF"/>
<ellipse cx="150.001" cy="34.0579" rx="13.1579" ry="13.0814" fill="white"/>
<ellipse cx="232.457" cy="69.8133" rx="34.2105" ry="34.8837" fill="#0184FF"/>
<ellipse cx="232.457" cy="68.9407" rx="13.1579" ry="13.0814" fill="white"/>
<ellipse cx="265.791" cy="150.044" rx="34.2105" ry="34.8837" fill="#0184FF"/>
<ellipse cx="265.791" cy="149.171" rx="13.1579" ry="13.0814" fill="white"/>
<ellipse cx="232.457" cy="232.02" rx="34.2105" ry="34.8837" fill="#0184FF"/>
<ellipse cx="232.457" cy="232.89" rx="13.1579" ry="13.0814" fill="white"/>
<ellipse cx="150.001" cy="265.163" rx="34.2105" ry="34.8837" fill="#0184FF"/>
<ellipse cx="150.001" cy="264.292" rx="13.1579" ry="13.0814" fill="white"/>
<ellipse cx="67.5445" cy="232.02" rx="34.2105" ry="34.8837" fill="#0184FF"/>
<ellipse cx="67.5446" cy="232.89" rx="13.1579" ry="13.0814" fill="white"/>
<ellipse cx="34.2105" cy="151.786" rx="34.2105" ry="34.8837" fill="#0184FF"/>
<ellipse cx="33.9352" cy="151.816" rx="13.1579" ry="13.0814" fill="white"/>
<ellipse cx="67.5445" cy="69.8133" rx="34.2105" ry="34.8837" fill="#0184FF"/>
<ellipse cx="67.5446" cy="68.9407" rx="13.1579" ry="13.0814" fill="white"/>
</svg>
