<svg width="38" height="38" viewBox="0 0 38 38" fill="none" xmlns="http://www.w3.org/2000/svg">
<rect width="38" height="38" rx="19" fill="#D9EBFF"/>
<path d="M21.125 26.9644H19.025V28.2366C19.025 28.4572 18.9504 28.6397 18.8013 28.7842C18.6522 28.9287 18.4643 29.0007 18.2375 29C18.01 29 17.822 28.9277 17.6736 28.7832C17.5252 28.6387 17.4507 28.4565 17.45 28.2366V23.6565C17.45 23.436 17.5245 23.2538 17.6736 23.1099C17.8227 22.9661 18.0107 22.8938 18.2375 22.8931H21.125C21.545 22.8931 21.9125 23.0458 22.2275 23.3511C22.5425 23.6565 22.7 24.0127 22.7 24.4198V25.4377C22.7 25.8448 22.5425 26.201 22.2275 26.5064C21.9125 26.8117 21.545 26.9644 21.125 26.9644ZM25.325 26.4555V28.2366C25.325 28.4572 25.2504 28.6397 25.1013 28.7842C24.9522 28.9287 24.7643 29.0007 24.5375 29C24.31 29 24.122 28.9277 23.9736 28.7832C23.8252 28.6387 23.7507 28.4565 23.75 28.2366V23.6565C23.75 23.436 23.8245 23.2538 23.9736 23.1099C24.1227 22.9661 24.3107 22.8938 24.5375 22.8931C24.765 22.8931 24.9533 22.9654 25.1024 23.1099C25.2515 23.2545 25.3257 23.4366 25.325 23.6565V24.9288H27.425V23.6565C27.425 23.436 27.4995 23.2538 27.6486 23.1099C27.7977 22.9661 27.9857 22.8938 28.2125 22.8931C28.44 22.8931 28.6283 22.9654 28.7774 23.1099C28.9265 23.2545 29.0007 23.4366 29 23.6565V28.2366C29 28.4572 28.9254 28.6397 28.7763 28.7842C28.6272 28.9287 28.4393 29.0007 28.2125 29C27.985 29 27.797 28.9277 27.6486 28.7832C27.5002 28.6387 27.4257 28.4565 27.425 28.2366V26.4555H25.325ZM19.025 25.4377H21.125V24.4198H19.025V25.4377ZM16.4 9.00002C16.54 9.00002 16.667 9.02139 16.7811 9.06414C16.8952 9.10689 17.0044 9.17033 17.1087 9.25447C19.5237 11.3579 21.3437 13.2538 22.5687 14.942C23.7937 16.6302 24.5112 18.2288 24.7212 19.7379C24.7562 20.0263 24.6687 20.2852 24.4587 20.5145C24.2487 20.7439 23.9775 20.8582 23.645 20.8575H17.45C16.8725 20.8575 16.3783 21.057 15.9674 21.456C15.5565 21.855 15.3507 22.334 15.35 22.8931V27.6768C15.35 27.9652 15.2492 28.2112 15.0476 28.4148C14.846 28.6183 14.5968 28.7201 14.3 28.7201C12.235 28.7201 10.6687 27.9228 9.60125 26.3282C8.53375 24.7337 8 22.8422 8 20.6539C8 19.0594 8.65205 17.2996 9.95615 15.3746C11.2602 13.4495 13.1719 11.4095 15.6912 9.25447C15.7962 9.16965 15.9058 9.10587 16.0199 9.06312C16.134 9.02037 16.2607 8.99934 16.4 9.00002Z" fill="#0084FF"/>
</svg>
