<svg width="109" height="109" viewBox="0 0 109 109" fill="none" xmlns="http://www.w3.org/2000/svg">
<circle cx="54.5" cy="54.5" r="52" stroke="#5E5E5E" stroke-width="5"/>
<mask id="path-2-outside-1_780_46" maskUnits="userSpaceOnUse" x="38" y="40" width="33" height="33" fill="black">
<rect fill="white" x="38" y="40" width="33" height="33"/>
<path d="M51.9517 71.8182V41.8182H57.0426V71.8182H51.9517ZM39.4972 59.3636V54.2727H69.4972V59.3636H39.4972Z"/>
</mask>
<path d="M51.9517 71.8182V41.8182H57.0426V71.8182H51.9517ZM39.4972 59.3636V54.2727H69.4972V59.3636H39.4972Z" fill="#5E5E5E"/>
<path d="M51.9517 71.8182H50.9517V72.8182H51.9517V71.8182ZM51.9517 41.8182V40.8182H50.9517V41.8182H51.9517ZM57.0426 41.8182H58.0426V40.8182H57.0426V41.8182ZM57.0426 71.8182V72.8182H58.0426V71.8182H57.0426ZM39.4972 59.3636H38.4972V60.3636H39.4972V59.3636ZM39.4972 54.2727V53.2727H38.4972V54.2727H39.4972ZM69.4972 54.2727H70.4972V53.2727H69.4972V54.2727ZM69.4972 59.3636V60.3636H70.4972V59.3636H69.4972ZM52.9517 71.8182V41.8182H50.9517V71.8182H52.9517ZM51.9517 42.8182H57.0426V40.8182H51.9517V42.8182ZM56.0426 41.8182V71.8182H58.0426V41.8182H56.0426ZM57.0426 70.8182H51.9517V72.8182H57.0426V70.8182ZM40.4972 59.3636V54.2727H38.4972V59.3636H40.4972ZM39.4972 55.2727H69.4972V53.2727H39.4972V55.2727ZM68.4972 54.2727V59.3636H70.4972V54.2727H68.4972ZM69.4972 58.3636H39.4972V60.3636H69.4972V58.3636Z" fill="#5E5E5E" mask="url(#path-2-outside-1_780_46)"/>
</svg>
