<svg width="38" height="38" viewBox="0 0 38 38" fill="none" xmlns="http://www.w3.org/2000/svg">
<rect width="38" height="38" rx="19" fill="#FFF2D7"/>
<path d="M9.00833 8C8.97426 8 8.94028 8.00197 8.90568 8.00547C8.35198 8.06187 7.9489 8.55603 8.00526 9.10982C8.06166 9.66349 8.55586 10.0666 9.10961 10.0101C9.66323 9.95385 10.0663 9.45965 10.0099 8.9059C9.95705 8.38674 9.51916 7.99987 9.00828 8H9.00833ZM14.3149 8.39957C14.2948 8.39957 14.2739 8.40023 14.2534 8.40233C13.9259 8.43561 13.6878 8.72886 13.7211 9.0564C13.7544 9.38394 14.0476 9.62206 14.3752 9.5887C14.7027 9.55542 14.9408 9.26357 14.9074 8.93603C14.8762 8.62894 14.6171 8.39953 14.315 8.39962L14.3149 8.39957ZM10.9953 9.18505C10.9751 9.18505 10.9554 9.18567 10.935 9.18777C10.6075 9.22113 10.368 9.5143 10.4013 9.84188C10.4347 10.1694 10.7279 10.4075 11.0554 10.3742C11.383 10.3408 11.6211 10.049 11.5877 9.72142C11.5565 9.41433 11.2974 9.18497 10.9953 9.18505ZM15.7997 9.70228C15.767 9.70228 15.7344 9.70303 15.7012 9.7064C15.1697 9.76048 14.7822 10.2355 14.8363 10.7669C14.8904 11.2983 15.3654 11.6858 15.8968 11.6317C16.4282 11.5776 16.8144 11.1026 16.7603 10.5711C16.7095 10.073 16.2899 9.70211 15.7996 9.70224L15.7997 9.70228ZM12.5196 10.7464C12.4617 10.7464 12.4033 10.7486 12.3444 10.7546C12.0082 10.7888 11.7048 10.9196 11.4577 11.1145C11.3435 11.0204 11.2118 10.95 11.0701 10.9072C10.9285 10.8644 10.7798 10.8502 10.6326 10.8654C10.0164 10.9282 9.56676 11.478 9.62956 12.0942C9.69235 12.7105 10.2436 13.1587 10.8598 13.0959C10.8809 13.0937 10.902 13.091 10.9228 13.0877C11.1189 13.5876 11.5394 13.965 12.0503 14.1099C11.9917 14.2661 11.9701 14.4339 11.9874 14.5999C12.048 15.1953 12.581 15.6293 13.1765 15.5687C13.772 15.508 14.2046 14.9764 14.144 14.3809C14.1299 14.2392 14.0879 14.1017 14.0205 13.9763C13.9531 13.8509 13.8616 13.74 13.7512 13.6501C14.0887 13.2997 14.2765 12.809 14.2233 12.2872C14.1334 11.4041 13.3886 10.7461 12.5197 10.7464L12.5196 10.7464ZM17.2871 12.6471C17.1994 12.6467 17.1117 12.6508 17.0244 12.6593C15.6122 12.8032 14.5844 14.0647 14.7282 15.4769C14.7492 15.6852 14.7956 15.8902 14.8664 16.0872C14.1242 16.4261 13.6447 17.2091 13.732 18.0659C13.8415 19.1415 14.8019 19.9243 15.8776 19.8148C16.054 19.7967 16.2271 19.7548 16.3921 19.6902C16.3942 19.7497 16.3983 19.8093 16.4044 19.8694C16.5406 21.2068 17.6312 22.2161 18.9319 22.2901C18.7136 22.9557 18.6278 23.6762 18.7033 24.418C18.7055 24.4394 18.7077 24.4609 18.7101 24.4823C18.6965 24.4833 18.6828 24.4836 18.6691 24.485C17.805 24.573 17.1771 25.3451 17.2651 26.2092C17.3531 27.0731 18.1239 27.7025 18.9879 27.6145C19.3222 27.581 19.6369 27.4409 19.8856 27.215C20.948 28.4778 22.5961 29.2106 24.3616 29.0308C27.1975 28.742 29.2619 26.2085 28.973 23.3725C28.7964 21.6375 27.7798 20.1914 26.3676 19.396C26.4511 19.0691 26.4791 18.722 26.4429 18.3669C26.2778 16.7454 24.8295 15.5649 23.208 15.73C22.1025 15.8426 21.203 16.5523 20.7942 17.5062C20.3587 17.1507 19.8137 16.9306 19.226 16.9014C19.6746 16.3845 19.9165 15.6916 19.8418 14.9569C19.7069 13.6329 18.5898 12.6467 17.287 12.6471H17.2871ZM22.0504 12.7224C22.0069 12.7224 21.9634 12.7247 21.9192 12.7292C21.2107 12.8013 20.6948 13.4342 20.7669 14.1427C20.8391 14.8513 21.4719 15.3671 22.1804 15.2949C22.889 15.2228 23.4049 14.5899 23.3327 13.8814C23.265 13.2172 22.7041 12.7222 22.0504 12.7224ZM24.6587 13.8759C24.6385 13.8759 24.6175 13.8779 24.5971 13.88C24.2696 13.9134 24.0314 14.2052 24.0648 14.5327C24.0981 14.8603 24.3913 15.0985 24.7189 15.0651C25.0464 15.0317 25.2845 14.7399 25.2512 14.4124C25.2199 14.1053 24.9608 13.8759 24.6587 13.876L24.6587 13.8759ZM9.98122 16.2049C9.96108 16.2049 9.94151 16.2056 9.92106 16.2077C9.59352 16.2409 9.35399 16.5328 9.38736 16.8604C9.41517 17.1336 9.62426 17.344 9.88274 17.3872C9.85785 17.504 9.85138 17.6241 9.86356 17.743C9.92771 18.373 10.4897 18.832 11.1198 18.7679C11.7498 18.7037 12.2088 18.1404 12.1447 17.5103C12.0805 16.8803 11.5185 16.4213 10.8884 16.4854C10.7665 16.4979 10.6473 16.5298 10.5355 16.5799C10.4467 16.3568 10.2279 16.2049 9.98122 16.2049V16.2049ZM11.9134 19.5287C11.8841 19.5287 11.8542 19.5299 11.8245 19.5329C11.3479 19.5814 11.0014 20.0073 11.05 20.484C11.0984 20.9605 11.5244 21.307 12.001 21.2584C12.4775 21.2099 12.824 20.7854 12.7755 20.3088C12.7299 19.862 12.353 19.5287 11.9134 19.5288L11.9134 19.5287ZM14.0495 21.1599C13.9846 21.1598 13.9197 21.163 13.8552 21.1695C12.8098 21.2759 12.0492 22.2109 12.1557 23.2563C12.2621 24.3017 13.1957 25.0623 14.2411 24.9558C14.6716 24.9124 15.0742 24.7232 15.3823 24.4194C15.616 24.5538 15.886 24.6113 16.1541 24.5836C16.8627 24.5114 17.3785 23.8786 17.3064 23.17C17.2342 22.4615 16.6014 21.9457 15.8929 22.0178C15.8148 22.0257 15.7398 22.0407 15.667 22.0616C15.3281 21.5146 14.7219 21.1597 14.0496 21.1599H14.0495Z" fill="#DBAB4A"/>
</svg>
