<svg width="213" height="194" viewBox="0 0 213 194" fill="none" xmlns="http://www.w3.org/2000/svg">
<path d="M212.375 87.25C212.375 82.1446 210.347 77.2483 206.737 73.6382C203.127 70.0281 198.23 68 193.125 68H132.295L141.535 24.0138C141.728 23.0513 141.824 21.9925 141.824 20.9338C141.824 16.9875 140.188 13.33 137.589 10.7313L127.386 0.625L64.0538 63.9575C60.4925 67.5188 58.375 72.3313 58.375 77.625V173.875C58.375 178.98 60.4031 183.877 64.0132 187.487C67.6233 191.097 72.5196 193.125 77.625 193.125H164.25C172.239 193.125 179.072 188.313 181.96 181.383L211.028 113.526C211.894 111.313 212.375 109.003 212.375 106.5V87.25ZM0.625 193.125H39.125V77.625H0.625V193.125Z" fill="white"/>
</svg>
