<svg width="38" height="38" viewBox="0 0 38 38" fill="none" xmlns="http://www.w3.org/2000/svg">
<rect width="38" height="38" rx="19" fill="#FFD5DB"/>
<path d="M22.6 20.2V10.6C22.6 9.64522 22.2207 8.72955 21.5456 8.05442C20.8705 7.37928 19.9548 7 19 7C18.0452 7 17.1295 7.37928 16.4544 8.05442C15.7793 8.72955 15.4 9.64522 15.4 10.6V20.2C14.3926 20.9556 13.6484 22.009 13.2729 23.211C12.8974 24.413 12.9097 25.7027 13.3079 26.8974C13.7061 28.092 14.4701 29.1311 15.4917 29.8675C16.5133 30.6038 17.7407 31 19 31C20.2593 31 21.4867 30.6038 22.5083 29.8675C23.5299 29.1311 24.2939 28.092 24.6921 26.8974C25.0903 25.7027 25.1026 24.413 24.7271 23.211C24.3516 22.009 23.6074 20.9556 22.6 20.2ZM19 9.4C19.3183 9.4 19.6235 9.52643 19.8485 9.75147C20.0736 9.97652 20.2 10.2817 20.2 10.6V14.2H17.8V10.6C17.8 10.2817 17.9264 9.97652 18.1515 9.75147C18.3765 9.52643 18.6817 9.4 19 9.4Z" fill="#DB3950"/>
</svg>
